<?xml version="1.0" standalone="no"?>
<!DOCTYPE svg PUBLIC "-//W3C//DTD SVG 1.1//EN" "http://www.w3.org/Graphics/SVG/1.1/DTD/svg11.dtd" >
<svg xmlns="http://www.w3.org/2000/svg">
<metadata>Generated by IcoMoon</metadata>
<defs>
<font id="icomoon" horiz-adv-x="1024">
<font-face units-per-em="1024" ascent="960" descent="-64" />
<missing-glyph horiz-adv-x="1024" />
<glyph unicode="&#x20;" horiz-adv-x="512" d="" />
<glyph unicode="&#xe600;" glyph-name="address" d="M512 960c-176.736 0-320-143.264-320-320 0-320 320-704 320-704s320 384 320 704c0 176.736-143.264 320-320 320zM512 444c-108.256 0-196 87.744-196 196s87.744 196 196 196 196-87.744 196-196-87.744-196-196-196zM388 640c0 68.48 55.52 124 124 124s124-55.52 124-124c0-68.48-55.52-124-124-124s-124 55.52-124 124z" />
<glyph unicode="&#xe601;" glyph-name="applynow" horiz-adv-x="1046" d="M272.334 946.462h571.769v-1010.462h-844.103v708.989l7.909 20.685 250.521 280.79h13.904zM781.804 884.163h-495.566l-223.939-250.997v-634.869h719.506v885.866zM324.342 624.923l-299.322 7.047 247.87 281.189 62.363-1.468zM415.781 324.666l29.2 188.176 399.064 392.575 155.732-155.732-395.819-392.575zM858.491 907.879c48.666-48.64 95.436-97.167 145.998-145.92 50.919 56.278 54.298 139.731 14.915 176.056-40.7 37.54-110.069 25.912-160.914-30.135z" />
<glyph unicode="&#xe602;" glyph-name="apply" horiz-adv-x="1042" d="M252.27 135.424l19.818 284.051 326.99 356.719 274.146-257.629-353.416-383.141zM661.813 842.221l272.494-257.607 107.343 118.883-270.881 255.981z" />
<glyph unicode="&#xe603;" glyph-name="areyoulookingfor" horiz-adv-x="959" d="M13.172-63.691h408.849c0 0 13.812 146.412-165.75 201.662 3.699 33.203 37.304 74.58 41.438 71.824s314.535-188.772 516.572-45.611c-19.833 46.033-281.761 294.236-281.761 294.236l82.875 77.349c0 0 17.953 81.47-69.062 74.587-31.899-20.662-91.162-82.875-91.162-82.875l-287.299 295.587c0 0-169.91-220.966 51.089-549.701-31.157-31.11-56.648-81.53-62.14-129.87 0 0-209.949-102.213-143.649-207.187zM684.797 536.088c11.010 66.909-21.358 150.9-146.746 156.411-60.56 18.428-35.19 83.349-4.789 89.563s237.654 5.511 251.433-231.487c-15.157-57.872-81.972-56.594-99.898-14.488zM860.499 547.956c12.388 155.093-114.091 312.528-312.508 309.773-64.695 15.672-42.079 94.373-6.167 101.964 245.353-6.187 403.417-157.495 417.196-394.494-26.18-62.006-83.349-49.705-98.52-17.244z" />
<glyph unicode="&#xe604;" glyph-name="arrows" d="M1024 448q0-14.857-10.857-25.714l-146.286-146.286q-10.857-10.857-25.714-10.857t-25.714 10.857-10.857 25.714v73.143h-219.429v-219.429h73.143q14.857 0 25.714-10.857t10.857-25.714-10.857-25.714l-146.286-146.286q-10.857-10.857-25.714-10.857t-25.714 10.857l-146.286 146.286q-10.857 10.857-10.857 25.714t10.857 25.714 25.714 10.857h73.143v219.429h-219.429v-73.143q0-14.857-10.857-25.714t-25.714-10.857-25.714 10.857l-146.286 146.286q-10.857 10.857-10.857 25.714t10.857 25.714l146.286 146.286q10.857 10.857 25.714 10.857t25.714-10.857 10.857-25.714v-73.143h219.429v219.429h-73.143q-14.857 0-25.714 10.857t-10.857 25.714 10.857 25.714l146.286 146.286q10.857 10.857 25.714 10.857t25.714-10.857l146.286-146.286q10.857-10.857 10.857-25.714t-10.857-25.714-25.714-10.857h-73.143v-219.429h219.429v73.143q0 14.857 10.857 25.714t25.714 10.857 25.714-10.857l146.286-146.286q10.857-10.857 10.857-25.714z" />
<glyph unicode="&#xe605;" glyph-name="articles" d="M343.773 960h587.388v-1038.064h-867.16v728.355l8.125 21.25 257.364 288.459h14.284zM867.161 896h-509.104l-230.057-257.853v-652.211h739.16v910.064zM397.201 629.679l-307.498 7.239 254.642 288.87 64.065-1.508zM247.64 592.59h508.393v-63.999h-508.393zM247.64 493.258h508.393v-64.001h-508.393zM247.64 393.924h508.393v-63.999h-508.393zM247.64 294.592h508.393v-64.001h-508.393zM247.64 195.275h508.393v-64.001h-508.393z" />
<glyph unicode="&#xe606;" glyph-name="backtopage" d="M731.429 502.857v-109.714q0-7.429-5.429-12.857t-12.857-5.429h-201.143v-109.714q0-8-5.143-13.143t-13.143-5.143q-6.857 0-13.714 5.714l-182.286 182.286q-5.143 5.143-5.143 13.143t5.143 13.143l182.857 182.857q5.143 5.143 13.143 5.143 7.429 0 12.857-5.429t5.429-12.857v-109.714h201.143q7.429 0 12.857-5.429t5.429-12.857zM822.857 448q0 84.571-41.714 156t-113.143 113.143-156 41.714-156-41.714-113.143-113.143-41.714-156 41.714-156 113.143-113.143 156-41.714 156 41.714 113.143 113.143 41.714 156zM950.857 448q0-119.429-58.857-220.286t-159.714-159.714-220.286-58.857-220.286 58.857-159.714 159.714-58.857 220.286 58.857 220.286 159.714 159.714 220.286 58.857 220.286-58.857 159.714-159.714 58.857-220.286z" />
<glyph unicode="&#xe607;" glyph-name="bestbillingpractices" horiz-adv-x="961" d="M5.811 555.706c23.641 57.744 56.368 92.398 91.799 109.595 18.581 9.018 37.876 13.179 57.072 13.276 18.691 0.094 37.043-3.784 54.316-10.856 38.684-15.837 72.096-48.019 91.089-87.148l2.814-8.308c15.357-77.707-4.859-478.542-4.917-479.697l-5.092-16.348c-19.865-32.025-42.989-55.382-67.812-70.445-23.816-14.452-48.964-21.254-74.265-20.764-25.239 0.489-50.067 8.127-73.333 22.558-26.853 16.656-51.702 42.469-72.523 76.78l-4.958 17.822 3.265 440.803 2.546 12.73zM127.358 603.66c-20.181-9.795-39.751-31.121-55.803-67.79l-3.141-424.074c13.783-20.765 29.085-36.212 44.979-46.070 12.8-7.939 25.832-12.129 38.493-12.374 12.599-0.244 25.397 3.31 37.817 10.847 14.022 8.509 27.697 22.007 40.39 40.765 2.809 58.197 17.527 377.1 6.266 449.948-12.043 22.494-31.292 40.636-53.088 49.559-9.166 3.753-18.745 5.812-28.32 5.764-9.070-0.045-18.382-2.107-27.592-6.576zM260.193 595.728c0.386 0.144 134.647 49.47 139.32 110.227 3.67 47.717 2.242 62.914 0.388 82.652-1.385 14.743-2.98 31.713-3.337 62.562-0.412 35.61 18.65 66.719 46.609 86.464 14.903 10.525 32.602 17.869 51.311 20.874 18.954 3.044 38.925 1.568 58.104-5.626 33.236-12.467 63.111-41.292 79.049-92.353 27.638-88.545 19.342-196.897 10.886-258.641 58.322 8.592 154.166 16.274 207.518-14.254 37.727-21.585 67.653-70.004 86.7-131.041 18.068-57.904 27.161-128.849 24.067-198.609-3.145-70.901-18.888-141.167-50.557-196.521-28.152-49.205-68.593-86.887-123.567-104.041-47.334-14.767-111.648-20.584-174.075-21.339-89.886-1.089-178.109 8.59-204.731 16.996-7.048 2.225-14.979 4.036-23.764 6.040-55.143 12.581-134.942 30.79-153.803 118.026l-0.67 8.576c3.442 85.663 7.607 421.949 8.235 472.664l0.071 5.719 0.293 23.445 21.952 8.179zM467.855 700.863c-6.299-81.891-114.445-138.905-161.845-160.074-1.046-83.462-4.726-367.486-7.831-452.638 11.678-41.924 64.289-53.936 100.947-62.299 11.402-2.601 21.697-4.951 29.392-7.381 22.236-7.022 100.614-15.050 183.29-14.048 56.452 0.683 113.849 5.706 154.51 18.391 36.786 11.479 64.519 37.867 84.439 72.685 26.017 45.475 39.021 104.777 41.712 165.432 2.741 61.796-5.239 124.402-21.118 175.291-14.091 45.157-33.385 79.35-55.344 91.914-56.994 32.613-207.381-1.793-207.815-1.891l-52.249-11.79 11.244 52.259c0.099 0.459 34.794 158.967-0.939 273.445-8.794 28.176-22.74 43.129-37.509 48.669-7.592 2.848-15.695 3.401-23.532 2.142-8.080-1.298-15.894-4.59-22.635-9.35-10.576-7.469-17.798-18.317-17.664-29.915 0.321-27.682 1.791-43.334 3.069-56.934 2.206-23.486 3.905-41.57-0.12-93.908z" />
<glyph unicode="&#xe608;" glyph-name="billersandcodersdigest" d="M180.982 513.743l-68.706 38.17 333.989 305.362 549.651-82.066c0 0-45.804-135.504-47.713-166.040s-19.085-74.432 97.334-139.321c-38.17-43.896-446.592-442.774-446.592-442.774s-446.592 120.236-522.932 145.047c-51.53 43.896-97.334 152.681-64.889 221.387s112.602 97.334 177.491 83.974c64.889-13.36 301.544-82.066 301.544-82.066l271.008 227.111 74.432-36.262-320.629-278.643c0 0-316.811 91.608-345.44 91.608-26.85 3.554-152.944-36.199-49.621-156.498 185.125-55.347 452.317-129.779 452.317-129.779l353.074 345.44c0 0-101.151 61.072-32.445 251.922-124.053 26.719-417.963 62.981-417.963 62.981l-293.911-259.558z" />
<glyph unicode="&#xe609;" glyph-name="blog" horiz-adv-x="1010" d="M0.914 680.177c24.575 49.15 111.233 80.176 157.281 14.745 29.497-76.177-12.236-375.94 14.788-503.69 71.246-120.38 203.91-49.135 203.91-49.135s68.789 85.986 9.827 162.145c-58.962 76.159-164.602 41.765-169.515 58.962s-68.789 113.010 54.048 149.861c122.837 36.851 235.847-63.875 248.131-93.356 0 0 115.467-130.207 17.197-331.661s-348.857-147.405-361.141-137.578-167.059 58.962-171.972 262.871c-4.913 203.91 2.36 466.834-2.553 466.834zM326.858 606.421l-9.827 122.837c0 0 194.083 36.851 346.401-125.294s110.553-316.919 110.553-316.919h-122.837c0 0 0 326.747-324.289 319.377zM327.995 836.337l-9.827 122.837c105.64 2.457 325.61-8.809 504.952-188.151s188.511-461.090 186.054-488.113h-122.837c0 0 1.795 541.145-558.343 553.429z" />
<glyph unicode="&#xe60a;" glyph-name="blogger" d="M853.348 960h-682.698c-94.246 0-170.65-76.418-170.65-170.682v-682.636c0-94.266 76.404-170.682 170.65-170.682h682.696c94.25 0 170.648 76.416 170.648 170.682l0.006 682.636c0 94.264-76.404 170.682-170.652 170.682zM896 311.902c0-136.99-111.486-247.902-249.444-247.902h-268.818c-137.856 0-249.738 110.912-249.738 247.902v272.098c0.096 137 111.88 248 249.738 248h125.868c137.952 0 248.398-103 248.394-240 1.802-25.694 24.922-48 51.292-48h43.052c27.574 0 49.656-28.934 49.656-56.312v-175.786zM704 320c0-35.2-28.8-64-64-64h-256c-35.2 0-64 28.8-64 64v0c0 35.2 28.8 64 64 64h256c35.2 0 64-28.8 64-64v0zM576 576c0-35.2-28.8-64-64-64h-128c-35.2 0-64 28.8-64 64v0c0 35.2 28.8 64 64 64h128c35.2 0 64-28.8 64-64v0z" />
<glyph unicode="&#xe60b;" glyph-name="certifiedbiller" d="M611.509 211.872l63.084 15.064 33.895-43.311 4.708 139.349 13.181 2.825 30.129-192.074 42.37 50.843 13.181 1.883 51.785-42.37-47.077 251.391h-159.12zM738.618 629.915c-26.524 17.408-65.8 14.116-77.988-26.489-29.407-2.424-47.047-19.5-42.29-57.538-24.596-14.56-38.124-64.793 2.293-93.861-14.197-45.763 81.089-101.466 117.985-78.212 41.964-11.291 58.399-1.753 73.571 23.239 37.921 6.201 52.936 31.457 49.191 66.737 14.117 12.915 32.134 39.252-0.068 74.829 2.216 33.612-3.372 54.447-43.643 63.979-10.949 42.515-47.34 46.605-79.051 27.315zM740.182 605.455c55.972 0 101.364-44.284 101.364-98.892s-45.392-98.892-101.364-98.892c-55.972 0-101.364 44.284-101.364 98.892s45.392 98.892 101.364 98.892zM705.547 699.831h57.015v126.617l-116.211 133.381h-475.514v-703.643h589.578v127.397h-57.772v-71.105h-476.996l-1.481 592.541h397.003l84.438-105.176z" />
<glyph unicode="&#xe60c;" glyph-name="close" d="M512 960c-282.784 0-512-229.216-512-512s229.216-512 512-512 512 229.216 512 512-229.216 512-512 512zM512 32c-229.76 0-416 186.24-416 416s186.24 416 416 416 416-186.24 416-416-186.24-416-416-416zM672 704l-160-160-160 160-96-96 160-160-160-160 96-96 160 160 160-160 96 96-160 160 160 160z" />
<glyph unicode="&#xe60d;" glyph-name="cmsandcodingupdates" horiz-adv-x="1029" d="M3.177 604.978h346.434v354.555h324.783v-346.434h354.555v-332.902h-357.259v-343.727h-327.489v346.434h-343.727l2.707 322.076zM679.945 362.552c-32.515-1.541-92.863 0.259-92.863 0.259v29.772l-54.13-81.196 50.070-87.962 1.353 40.598c0 0 60.897-6.766 69.016 0 5.381 4.485 36.908 29.18 54.414 65.019 15.66 18.388 37.183 97.334 32.578 117.726-11.198 20.502-58.377 100.736-58.377 100.736l-97.823-60.744 95.761-124.208zM495.766 679.778c-36.369-0.069-79.426-3.528-88.925-12.884-11.51-20.328-57.752-113.341-57.752-113.341l106.72-52.861 59.021 115.833c18.368-25.712 38.602-56.424 38.602-56.424l-24.362-17.112 97.556 2.377 43.196 91.534-33.998-22.229c0 0-29.467 53.72-39.671 56.476-8.295 2.239-50.229 11.596-100.388 8.632zM315.15 350.576c15.898-34.906 46.604-89.482 62.178-94.673 23.338-1.025 127.207 0 127.207 0l-1.353 119.087h-130.001c14.57 28.040 32.747 60.010 32.747 60.010l26.309-13.937-46.41 85.844-101.168-3.069 35.241-20.202c0 0-34.485-50.644-32.309-60.985 1.35-6.403 7.604-41.228 27.56-72.075z" />
<glyph unicode="&#xe60e;" glyph-name="codemapping" horiz-adv-x="1151" d="M128.727 960c38.507 0 68.52-13.759 90.127-41.186 25.764-32.412 38.692-86.249 38.692-161.509 0-74.984-13.020-128.912-38.968-161.787-21.424-27.056-51.344-40.539-89.851-40.539s-69.627 14.775-93.267 44.51c-23.639 29.642-35.46 82.555-35.46 158.647 0 74.705 13.021 128.45 38.969 161.231 21.424 27.058 51.343 40.632 89.758 40.632zM128.727 896.929c-9.142 0-17.36-2.955-24.564-8.773-7.202-5.91-12.835-16.437-16.806-31.582-5.171-19.669-7.849-52.729-7.849-99.269 0-46.542 2.402-78.493 7.018-95.853 4.709-17.452 10.62-28.996 17.731-34.814 7.202-5.725 15.329-8.68 24.471-8.68 9.235 0 17.454 2.955 24.656 8.865 7.203 5.818 12.836 16.345 16.807 31.489 5.171 19.485 7.848 52.451 7.848 98.993 0 46.54-2.401 78.492-7.018 95.945-4.709 17.36-10.619 28.996-17.73 34.906-7.203 5.818-15.329 8.773-24.564 8.773zM502.905 561.722h-75.999v286.542c-27.796-26.041-60.485-45.248-98.161-57.623v68.982c19.761 6.464 41.37 18.746 64.64 36.845 23.27 18.192 39.246 39.338 47.834 63.533h61.685v-398.278zM780.492 561.722h-75.999v286.542c-27.796-26.041-60.485-45.248-98.161-57.623v68.982c19.761 6.464 41.37 18.746 64.64 36.845 23.27 18.192 39.246 39.338 47.834 63.533h61.685v-398.278zM1022.618 960c38.507 0 68.52-13.759 90.127-41.186 25.764-32.412 38.692-86.249 38.692-161.509 0-74.984-13.020-128.912-38.968-161.787-21.424-27.056-51.344-40.539-89.851-40.539s-69.627 14.775-93.267 44.51c-23.639 29.642-35.46 82.555-35.46 158.647 0 74.705 13.021 128.45 38.969 161.231 21.424 27.058 51.343 40.632 89.758 40.632zM1022.618 896.929c-9.142 0-17.36-2.955-24.564-8.773-7.202-5.91-12.835-16.437-16.806-31.582-5.171-19.669-7.849-52.729-7.849-99.269 0-46.542 2.402-78.493 7.018-95.853 4.709-17.452 10.62-28.996 17.731-34.814 7.202-5.725 15.329-8.68 24.471-8.68 9.235 0 17.454 2.955 24.656 8.865 7.203 5.818 12.836 16.345 16.807 31.489 5.171 19.485 7.848 52.451 7.848 98.993 0 46.54-2.401 78.492-7.018 95.945-4.709 17.36-10.619 28.996-17.73 34.906-7.203 5.818-15.329 8.773-24.564 8.773zM194.754-57.259h-75.999v286.542c-27.796-26.041-60.485-45.248-98.161-57.623v68.982c19.761 6.464 41.37 18.746 64.64 36.845 23.27 18.192 39.246 39.338 47.834 63.533h61.685v-398.278zM472.341-57.259h-75.999v286.542c-27.796-26.041-60.485-45.248-98.161-57.623v68.982c19.761 6.464 41.37 18.746 64.64 36.845 23.27 18.192 39.246 39.338 47.834 63.533h61.685v-398.278zM714.467 341.019c38.507 0 68.52-13.759 90.127-41.186 25.764-32.412 38.692-86.249 38.692-161.509 0-74.984-13.020-128.912-38.968-161.787-21.424-27.056-51.344-40.539-89.851-40.539s-69.627 14.775-93.267 44.51c-23.639 29.642-35.46 82.555-35.46 158.647 0 74.705 13.021 128.45 38.969 161.231 21.424 27.058 51.343 40.632 89.758 40.632zM714.467 277.949c-9.142 0-17.36-2.955-24.564-8.773-7.202-5.91-12.835-16.437-16.806-31.582-5.171-19.669-7.849-52.729-7.849-99.269 0-46.542 2.402-78.493 7.018-95.853 4.709-17.452 10.62-28.996 17.731-34.814 7.202-5.725 15.329-8.68 24.471-8.68 9.235 0 17.454 2.955 24.656 8.865 7.203 5.818 12.836 16.345 16.807 31.489 5.171 19.485 7.848 52.451 7.848 98.993 0 46.54-2.401 78.492-7.018 95.945-4.709 17.36-10.619 28.996-17.73 34.906-7.203 5.818-15.329 8.773-24.564 8.773zM1022.619 341.019c38.507 0 68.52-13.759 90.127-41.186 25.764-32.412 38.692-86.249 38.692-161.509 0-74.984-13.020-128.912-38.968-161.787-21.424-27.056-51.344-40.539-89.851-40.539s-69.627 14.775-93.267 44.51c-23.639 29.642-35.46 82.555-35.46 158.647 0 74.705 13.021 128.45 38.969 161.231 21.424 27.058 51.343 40.632 89.758 40.632zM1022.619 277.949c-9.142 0-17.36-2.955-24.564-8.773-7.202-5.91-12.835-16.437-16.806-31.582-5.171-19.669-7.849-52.729-7.849-99.269 0-46.542 2.402-78.493 7.018-95.853 4.709-17.452 10.62-28.996 17.731-34.814 7.202-5.725 15.329-8.68 24.471-8.68 9.235 0 17.454 2.955 24.656 8.865 7.203 5.818 12.836 16.345 16.807 31.489 5.171 19.485 7.848 52.451 7.848 98.993 0 46.54-2.401 78.492-7.018 95.945-4.709 17.36-10.619 28.996-17.73 34.906-7.203 5.818-15.329 8.773-24.564 8.773z" />
<glyph unicode="&#xe60f;" glyph-name="connect" d="M768 704h-138c48-32 93-89 107-128h30c65 0 128-64 128-128s-65-128-128-128h-192c-63 0-128 64-128 128 0 23 7 45 18 64h-137c-5-21-8-42-8-64 0-128 127-256 255-256s65 0 193 0 256 128 256 256-128 256-256 256zM287 320h-30c-65 0-128 64-128 128s65 128 128 128h192c63 0 128-64 128-128 0-23-7-45-18-64h137c5 21 8 42 8 64 0 128-127 256-255 256s-65 0-193 0-256-128-256-256 128-256 256-256h138c-48 32-93 89-107 128z" />
<glyph unicode="&#xe610;" d="M329.747 773.934c0 0 41.555 129.264 180.763 124.292 135.064-3.314 169.066-100.262 167.959-107.72 0.552-44.745 2.763-221.239-1.657-269.3-4.42-48.059-39.649-108.548-72.794-124.292-96.119 67.118-168.208-5.8-168.208-5.8s-77.89 34.802-101.091 129.264c-9.115 96.119-4.972 253.555-4.972 253.555z" />
<glyph unicode="&#xe611;" d="M454.038 330.624c0 0 3.314-21.544 30.659-26.516s84.519-9.115 106.062 7.458c21.544 16.572 21.544 59.66-14.915 72.918s-98.605 9.115-121.807-24.858c-23.201-33.974-162.408 66.289-160.751 178.981s3.314 243.613 3.314 243.613c0 0 39.922 113.496 125.121 137.55 69.243 19.55 108.94 17.409 164.894 0.829s116.835-92.805 125.12-140.036c8.286-47.231 2.486-185.61 2.486-185.61s11.6-14.915 28.173-13.258c16.572 1.657 24.858 4.971 34.802 26.516s8.286 116.006 3.314 130.921c-4.971 14.915-24.030 23.201-40.602 33.144-2.107 28.129-33.149 127.611-131.75 169.038-100.677 42.299-208.53 0.64-233.669-13.258-20.206-11.171-92.807-71.261-104.405-145.837-9.951-10.585-31.703-18.46-38.345-33.395-1.037-2.333-1.89-4.847-2.574-7.539-6.629-26.053-7.114-111.153 3.631-136.388s17.401-13.258 41.431-20.716c0.452-19.461-2.905-96.536 32.725-149.981s56.344-81.609 147.084-103.574z" />
<glyph unicode="&#xe612;" d="M321.46 366.254c0 0 9.943-117.663 48.059-144.179s101.091 43.088 101.091 43.088c0 0 43.088-24.859 76.233 0 23.201-10.772 60.489-64.632 94.462-49.717s51.374 127.607 54.688 149.151c31.487-17.401 96.12-44.745 112.692-54.688s126.778-71.261 135.893-235.326c-116.835-127.607-805.414-70.432-868.388-18.229-19.058 92.804 61.317 222.068 130.921 251.899s114.349 58.003 114.349 58.003z" />
<glyph unicode="&#xe613;" d="M514.526 192.037c12.7 0 22.997-10.295 22.997-22.99 0-12.7-10.296-22.997-22.997-22.997-12.696 0-22.99 10.296-22.99 22.997 0 12.696 10.295 22.99 22.99 22.99z" />
<glyph unicode="&#xe614;" d="M514.526 106.898c12.814 0 23.204-10.389 23.204-23.199 0-12.814-10.389-23.204-23.204-23.204-12.81 0-23.199 10.389-23.199 23.204 0 12.81 10.389 23.199 23.199 23.199z" />
<glyph unicode="&#xe615;" glyph-name="consultancy" d="M299.68 315.002c60.775-8.622 119.29-10.468 174.036-6.467 101.832 7.444 189.928 35.072 254.498 76.842 61.651 39.884 101.369 92.44 109.802 151.892 1.725 12.166 2.156 24.745 1.21 37.689-4.91 67.166-49.929 122.582-113.21 163.389-78.022 50.313-182.471 78.234-276.436 79.601-92.131 1.344-200.818-23.836-281.286-76.166-62.355-40.551-107.105-97.571-111.322-171.020-2.26-39.388 14.091-77.516 41.723-112.115 33.985-42.553 84.582-79.5 139.517-107.404l27.311-13.872-44.957-74.034 67.106 53.369 12.007-1.704zM477.716 251.869c-54.793-4.005-113.143-2.519-173.722 5.276l-39.237-31.206c-16.217-12.901-48.281-38.41-133.175-105.94l-41.889 36.889 96.051 158.217c-51.297 29.381-97.955 66.216-131.493 108.209-35.912 44.966-57.080 95.948-53.945 150.56 5.4 94.063 60.476 165.635 137.099 215.465 90.064 58.57 210.864 86.764 312.841 85.277 103.924-1.511 219.688-32.55 306.436-88.489 77.53-49.995 132.833-119.928 139.211-207.168 1.226-16.78 0.639-33.296-1.655-49.468-10.874-76.648-59.729-142.888-135.135-191.67-72.491-46.894-169.947-77.807-281.386-85.953zM946.469 680.509c0 0 129.565-516.302-547.040-511.747 73.398-58.122 235.758-83.664 404.426-60.192 75.726-63.919 177.392-101.924 219.081-104.508 9.238 9.037-70.585 14.705-102.938 135.289 75.44 81.608 317.279 293.409 26.47 541.159z" />
<glyph unicode="&#xe616;" horiz-adv-x="1023" d="M511.705 959.693c282.387 0 511.398-229.144 511.398-511.688 0-282.554-229.009-511.696-511.398-511.696-282.387 0-511.398 229.144-511.398 511.696 0 282.546 229.009 511.688 511.398 511.688z" />
<glyph unicode="&#xe617;" horiz-adv-x="1023" d="M388.136 745.32v-594.648l356.787 297.324z" />
<glyph unicode="&#xe618;" glyph-name="description" d="M934.267 876.622c0.149-0.057 52.285-20.108 60.496-73.488 3.234-21.029 6.494-263.671 5.769-462.599-0.508-139.744-3.741-260.53-11.675-276.396-12.658-25.314-136.756-19.567-290.915-1.238-250.817 29.822-597.802 82.282-610.922 86.915-13.36 4.718-31.276 12.359-47.303 24.375-19.013 14.26-34.609 33.95-37.862 61.055-4.093 34.090-0.143 564.131-0.132 565.655l2.888 13.652c0.092 0.206 32.486 72.305 83.069 72.305 4.524 0 832.423-7.981 834.77-8.003l11.815-2.232zM928.345 793.158c-1.52 9.889-9.085 15.905-13.98 18.827-79.873 0.789-776.46 7.668-826.683 7.668-5.209 0-14.429-17.29-19.068-26.712-0.462-64.712-3.596-520.508-0.077-549.821 0.683-5.696 5.431-10.938 11.346-15.374 8.903-6.676 20.515-11.506 29.452-14.663 11.561-4.082 348.947-54.068 596.481-83.501 127.953-15.212 220.015-41.856 223.186-35.514 2.741 5.483 4.107 115.422 4.584 246.468 0.715 195.862-2.251 433.182-5.242 452.621zM245.136 354.649c0 0 47.247 53.784 94.472 10.497 34.112-22.305 597.016-265.056 597.016-265.056l-888.305 118.088c-10.985 29.805 102.358-0.008 196.815 136.471zM243.058 356.508c0.14 0.157 48.934 55.696 98.167 10.929 34.593-22.453 625.366-252.655 596.506-264.776l-1.465-24.384-889.989 137.358-0.581 1.581c-3.291 8.935 1.519 13.552 12.207 17.49 4.809 1.772 10.893 3.41 18.060 5.339 37.746 10.159 106.256 28.598 166.878 116.191l0.219 0.273zM337.728 363.090c-43.807 40.153-87.742-7.225-90.385-10.156-61.775-89.18-131.507-107.951-169.936-118.294-7.034-1.893-13.007-3.502-17.581-5.187-6.449-2.375-9.848-4.845-9.284-8.757l866.465-115.184c-97.448 42.1-548.297 237.26-578.931 257.292l-0.349 0.286zM197.899 735.164h606.199v-47.237h-606.199zM197.899 737.965h609v-52.837h-611.8v52.837h2.801zM801.297 732.364h-600.599v-41.636h600.599v41.636zM195.275 651.188h606.199v-47.237h-606.199zM195.275 653.989h609v-52.837h-611.8v52.837h2.8zM798.674 648.388h-600.599v-41.636h600.599v41.636zM200.524 561.964h606.199v-47.237h-606.199zM200.524 564.764h609.001v-52.837h-611.801v52.837h2.8zM803.924 559.163h-600.599v-41.635h600.599v41.635zM200.524 470.116h606.199v-47.237h-606.199zM200.524 472.915h609.001v-52.837h-611.801v52.837h2.8zM803.924 467.315h-600.599v-41.635h600.599v41.635z" />
<glyph unicode="&#xe619;" glyph-name="download" d="M228.441 546.669h443.162v-304.883h231.575l-456.489-276.557-446.493 268.23h233.243zM234.307 804.977l-0.832 26.64h444.558v-25.808zM233.475 733.382v45.901h444.558v-45.895zM233.475 582.699v112.5h444.558v-112.487z" />
<glyph unicode="&#xe61a;" glyph-name="email" d="M928 832h-832c-52.8 0-96-43.2-96-96v-640c0-52.8 43.2-96 96-96h832c52.8 0 96 43.2 96 96v640c0 52.8-43.2 96-96 96zM398.752 409.632l-270.752-210.88v501.632l270.752-290.752zM176.384 704h671.232l-335.616-252-335.616 252zM409.28 398.304l102.72-110.304 102.72 110.304 210.56-270.304h-626.528l210.56 270.304zM625.248 409.632l270.752 290.752v-501.632l-270.752 210.88z" />
<glyph unicode="&#xe61b;" glyph-name="enrollwithus" d="M336.744 886.858c81.335 0 147.286-65.954 147.286-147.286s-65.951-147.286-147.286-147.286c-81.335 0-147.286 65.954-147.286 147.286s65.951 147.286 147.286 147.286zM92.076 8.904c-227.772 143.401 22.928 621.548 148.121 508.868 47.781-42.991 124.185-91.005 189.593-17.756 59.715 66.893 82.898 29.202 102.011 2.923 7.457-27.973-0.139-164.346-0.139-164.346l124.23-2.389c0 0 69.607-280.737-88.209-319.912-9.185 161.748-7.353 269.824-7.353 269.824l-58.52 2.401-3.596-348.894h-329.688v367.903c0 0-99.134 43.212-76.45-298.62zM697.7 250.199h231.739v115.869h115.869v241.293h-115.869v115.87h-231.739v-115.87h-115.867v-241.293h115.867z" />
<glyph unicode="&#xe61c;" horiz-adv-x="1027" d="M262.34 811.045c45.296 0 82.040-36.761 82.040-82.083 0-45.335-36.744-82.096-82.040-82.096s-82.040 36.761-82.040 82.096c0 45.322 36.744 82.083 82.040 82.083z" />
<glyph unicode="&#xe61d;" horiz-adv-x="1027" d="M793.329 798.885c45.296 0 82.040-36.761 82.040-82.083 0-45.334-36.744-82.096-82.040-82.096s-82.040 36.761-82.040 82.096c0 45.323 36.744 82.083 82.040 82.083z" />
<glyph unicode="&#xe61e;" horiz-adv-x="1027" d="M287.433 960v-284.765h-50.187v284.765z" />
<glyph unicode="&#xe61f;" horiz-adv-x="1027" d="M818.422 960v-284.765h-50.187v284.765z" />
<glyph unicode="&#xe620;" horiz-adv-x="1027" d="M299.571 504.949h111.062v-111.062h-111.062z" />
<glyph unicode="&#xe621;" horiz-adv-x="1027" d="M613.904 504.949h111.062v-111.062h-111.062z" />
<glyph unicode="&#xe622;" horiz-adv-x="1027" d="M456.738 504.949h111.062v-111.062h-111.062z" />
<glyph unicode="&#xe623;" horiz-adv-x="1027" d="M771.072 504.949h111.062v-111.062h-111.062z" />
<glyph unicode="&#xe624;" horiz-adv-x="1027" d="M145.087 351.483h111.062v-111.062h-111.062z" />
<glyph unicode="&#xe625;" horiz-adv-x="1027" d="M615.923 353.502h111.062v-111.062h-111.062z" />
<glyph unicode="&#xe626;" horiz-adv-x="1027" d="M458.757 353.502h111.062v-111.062h-111.062z" />
<glyph unicode="&#xe627;" horiz-adv-x="1027" d="M773.091 353.502h111.062v-111.062h-111.062z" />
<glyph unicode="&#xe628;" horiz-adv-x="1027" d="M142.405 200.035h111.061v-111.062h-111.061z" />
<glyph unicode="&#xe629;" horiz-adv-x="1027" d="M456.738 200.035h111.062v-111.062h-111.062z" />
<glyph unicode="&#xe62a;" horiz-adv-x="1027" d="M299.571 200.035h111.062v-111.062h-111.062z" />
<glyph unicode="&#xe62b;" horiz-adv-x="1027" d="M613.904 200.035h111.062v-111.062h-111.062z" />
<glyph unicode="&#xe62c;" horiz-adv-x="1027" d="M308.651 349.462h111.061v-111.061h-111.061z" />
<glyph unicode="&#xe62d;" horiz-adv-x="1027" d="M0.523 864.739h1025.498v-282.025h-1025.498z" />
<glyph unicode="&#xe62e;" horiz-adv-x="1027" d="M0.523-63.478h1025.498v74.61h-1025.498z" />
<glyph unicode="&#xe62f;" horiz-adv-x="1027" d="M0.523 582.714h89.174v-571.521h-89.174z" />
<glyph unicode="&#xe630;" horiz-adv-x="1027" d="M936.847 582.714h89.174v-589.223h-89.174z" />
<glyph unicode="&#xe631;" d="M436.681 322.799c0 0 45.002-61.498 98.748 1.246s26.256 124.218 26.256 124.218l-150.85-1.79c0 0-20.403-74.742 25.845-123.675z" />
<glyph unicode="&#xe632;" d="M361.009 299.481c0 0-306.441 0-303.949-388.656 622.847-4.983 854.545-2.491 854.545-2.491s42.354 371.216-311.423 388.656c-27.526-120.578-42.354-311.423-42.354-311.423l-69.759 276.544-64.776-276.544-62.284 313.914z" />
<glyph unicode="&#xe633;" d="M692.873 636.85h126.504v-56.889h-126.504z" />
<glyph unicode="&#xe634;" d="M624.445 796.154l96.11 82.256 36.889-43.111-96.11-82.255z" />
<glyph unicode="&#xe635;" d="M450.792 833.496v126.504h56.89v-126.504z" />
<glyph unicode="&#xe636;" d="M298.953 761.501l-94.979 83.561 37.556 42.666 94.978-83.56z" />
<glyph unicode="&#xe637;" d="M262.416 574.924l-126.503 0.35v56.667l126.503-0.349z" />
<glyph unicode="&#xe638;" d="M640.797 490.35l98.086-79.891-35.778-44-98.086 79.891z" />
<glyph unicode="&#xe639;" d="M341.397 451.153l-100.858-76.362-34.221 45.334 100.857 76.362z" />
<glyph unicode="&#xe63a;" d="M392.168 425.14c-0.45 0.392-157.52 135.341-94.642 283.963 19.154 45.273 52.899 75.823 92.477 93.069 26.613 11.596 55.825 17.068 84.863 16.861 28.955-0.207 57.846-6.044 83.902-17.067 40.558-17.159 74.59-46.841 92.327-87.547 45.395-104.163 2.808-164.68-53.684-244.952-9.294-13.207-19.005-27.006-28.373-41.152l-8.683-13.111-15.762 0.445c-11.935 0.336-23.759 0.347-36.945 0.358-25.753 0.022-56.421 0.048-98.147 2.134l-17.333 7zM349.749 687.103c-40.035-94.627 46.741-187.789 72.701-212.781 36.369-1.608 62.748-1.631 85.199-1.65 8.011-0.007 15.55-0.013 22.757-0.080 7.059 10.356 13.916 20.099 20.56 29.541 46.045 65.427 80.756 114.752 48.129 189.618-11.568 26.549-34.586 46.256-62.327 57.992-19.27 8.152-40.662 12.469-62.124 12.623-21.378 0.153-42.72-3.804-61.974-12.194-27.010-11.769-49.982-32.485-62.922-63.070z" />
<glyph unicode="&#xe63b;" d="M436.817 322.901c0.13-0.174 44.876-61.327 98.482 1.254 52.531 61.325 27.442 121.239 26.276 123.935l-150.609-1.786c-0.86-3.251-19.364-75.563 25.838-123.389l0.012-0.014zM535.559 323.934c-53.789-62.795-98.717-1.637-99.009-1.243-46.304 49.002-25.936 123.61-25.879 123.827l0.034 0.125 0.129 0.002 151.008 1.686c0.077-0.178 27.532-61.571-26.283-124.396z" />
<glyph unicode="&#xe63c;" d="M360.868 299.31c-5.933-0.039-306.017-3.287-303.637-388.316 615.382-4.922 848.164-2.555 854.221-2.492 0.707 6.466 39.672 370.914-311.136 388.309-27.502-120.571-42.275-310.706-42.318-311.257l-0.336-0.028-69.588 275.864-64.616-275.862-0.334 0.006-62.257 313.775zM56.889-89.175c-2.492 388.826 303.239 388.815 304.118 388.826l0.142 0.002 0.027-0.14 62.131-313.139 64.596 275.775 0.331 0.003 69.505-275.537c1.195 15.004 15.873 194.755 42.276 310.413l0.032 0.14 0.142-0.007c353.958-17.449 311.695-387.779 311.584-388.845l-0.016-0.151-0.152-0.002c-0.683-0.007-231.701-2.491-854.548 2.491l-0.168 0.001-0.001 0.168z" />
<glyph unicode="&#xe63d;" glyph-name="facebook" d="M672 768c-88.366 0-160-71.634-160-160v-96h-128v-128h128v-448h128v448h144l32 128h-176v96c0 17.672 14.326 32 32 32h160v128h-160z" />
<glyph unicode="&#xe63e;" glyph-name="fax" d="M256 896h512v-128h-512v128zM960 704h-896c-35.2 0-64-28.8-64-64v-320c0-35.2 28.8-64 64-64h192v-256h512v256h192c35.2 0 64 28.8 64 64v320c0 35.2-28.8 64-64 64zM128 512c-35.36 0-64 28.64-64 64s28.64 64 64 64 64-28.64 64-64-28.64-64-64-64zM704 64h-384v320h384v-320z" />
<glyph unicode="&#xe63f;" glyph-name="glossary" horiz-adv-x="1044" d="M393.199 951.808h567.651c0 0 72.466-197.268-36.233-217.398-137.305-14.874-535.238-13.483-535.238-13.483s64.209 106.079 3.821 230.881zM418.159 902.55l-389.984 8.183 0.966 49.267 389.985-8.183zM78.644 951.427l-26.907-194.091-48.881 6.762 26.907 194.092zM5.023 787.83c0.27-0.028 93.127-9.987 201.213-18.51 40.417-3.193 81.651-6.095 118.729-8.053 32.619-1.722 62.945-2.835 88.226-2.971l-0.193-49.267c-27.116 0.145-58.090 1.258-90.545 2.971-40.064 2.115-81.28 4.988-120.081 8.053-105.388 8.311-202.091 18.674-202.372 18.703l5.023 49.075zM163.244 555.176l14.434 182.695 777.245-15.158c0.415-0.037 145.856-10.647 65.151-214.783l-12.945-13.428c-215.343-96.387-447.776-138.495-448.451-138.619l-14.974 1.932-381.799 180.409 1.339 16.951zM223.287 687.702l-9.436-119.439 343.699-162.408c40.756 7.951 235.465 48.422 420.067 129.49 46.366 125.553-18.555 137.281-26.209 138.217l-728.119 14.14zM539.525 702.034l49.171-0.771c-0.571-187.733-1.12-313.86-1.133-316.164l-49.267 0.193c0.011 1.979 3.469 128.641 8.842 316.623l-7.612 0.119zM457.614 239.225l-338.176 229.475 140.115 50.683 294.681-139.252 415.253 124.861-0.030-105.844zM37.604 295.492c-0.195 0.343-70.093 119.073 97.848 179.82l11.8 4.269 10.419-7.070c149.104-101.171 268.993-183.264 303.217-206.723l508.325 158.831 1.016-32.472 5.981-191.111-522.142-265.037-411.053 352.924-5.41 6.569zM140.772 424.462c-84.635-35.396-68.084-87.608-61.961-101.255l382.349-328.279 464.8 235.93-3.983 127.271-469.229-146.614-9.837 6.755c-0.432 0.296-144.946 99.482-302.139 206.192zM483.88 239.225v-273.761h-49.461v273.761z" />
<glyph unicode="&#xe640;" glyph-name="google-plus" d="M559.066 896c0 0-200.956 0-267.94 0-120.12 0-233.17-91.006-233.17-196.422 0-107.726 81.882-194.666 204.088-194.666 8.498 0 16.756 0.17 24.842 0.752-7.93-15.186-13.602-32.288-13.602-50.042 0-29.938 16.104-54.21 36.468-74.024-15.386 0-30.242-0.448-46.452-0.448-148.782 0.002-263.3-94.758-263.3-193.020 0-96.778 125.542-157.314 274.334-157.314 169.624 0 263.306 96.244 263.306 193.028 0 77.6-22.896 124.072-93.686 174.134-24.216 17.144-70.53 58.836-70.53 83.344 0 28.72 8.196 42.868 51.428 76.646 44.312 34.624 75.672 83.302 75.672 139.916 0 67.406-30.020 133.098-86.372 154.772h84.954l59.96 43.344zM465.48 240.542c2.126-8.972 3.284-18.206 3.284-27.628 0-78.2-50.392-139.31-194.974-139.31-102.842 0-177.116 65.104-177.116 143.3 0 76.642 92.126 140.444 194.964 139.332 24-0.254 46.368-4.116 66.67-10.69 55.826-38.826 95.876-60.762 107.172-105.004zM300.818 532.224c-69.038 2.064-134.636 77.226-146.552 167.86-11.916 90.666 34.37 160.042 103.388 157.99 69.010-2.074 134.638-74.814 146.558-165.458 11.906-90.66-34.39-162.458-103.394-160.392zM832 704v192h-64v-192h-192v-64h192v-192h64v192h192v64z" />
<glyph unicode="&#xe641;" glyph-name="hireabiller" d="M547.231 886.858c89.946 0 171.447-36.451 230.495-95.375 59.121-58.998 95.694-140.4 95.694-230.21s-36.574-171.211-95.694-230.21c-59.048-58.924-140.549-95.375-230.495-95.375s-171.447 36.451-230.495 95.375c-59.121 58.998-95.694 140.4-95.694 230.21s36.574 171.211 95.694 230.21c59.047 58.924 140.548 95.375 230.495 95.375zM726.298 739.769c-45.78 45.684-109.090 73.946-179.067 73.946s-133.286-28.261-179.066-73.946c-45.705-45.61-73.98-108.715-73.98-178.496s28.275-132.886 73.98-178.496c45.78-45.684 109.089-73.946 179.066-73.946s133.286 28.261 179.067 73.946c45.705 45.61 73.98 108.715 73.98 178.496s-28.275 132.886-73.98 178.496zM484.312 521.814c-113.087 141.364 7.061 194.625 54.555 194.252s155.549-48.457 58.355-187.005c-3.023-24.684 1.077-47.256 1.077-47.256s117.301-18.41 98.302-59.184c-43.995-94.408-258.965-90.991-314.847 0.352-25.719 42.037 101.149 58.842 101.149 58.842l1.408 39.998zM484.089 521.742c-34.48 43.121-47.278 78.064-47.060 105.795 0.11 14.023 3.548 26.205 9.192 36.666 5.643 10.459 13.494 19.201 22.43 26.35 22.459 17.966 51.793 25.875 70.218 25.731 16.991-0.133 41.714-6.359 62.051-20.626 10.081-7.072 19.088-16.122 25.543-27.385 6.456-11.264 10.359-24.742 10.234-40.668-0.203-26.002-11.148-58.534-39.263-98.624-2.866-23.481 0.706-44.973 1.055-46.985 4.558-0.732 117.074-19.2 98.312-59.467-8.137-17.462-22.108-31.584-39.832-42.426-28.397-17.372-66.437-26.33-105.558-27.129-39.117-0.799-79.325 6.558-112.061 21.813-24.763 11.539-45.258 27.601-57.781 48.073-25.386 41.494 95.997 58.452 101.123 59.149l1.399 39.733zM437.466 627.534c-0.217-27.653 12.567-62.521 47.015-105.583l0.048-0.144-1.408-39.998-0.006-0.184-0.183-0.025c-0.362-0.049-126.533-16.764-100.991-58.511 12.475-20.392 32.904-36.398 57.593-47.903 32.676-15.227 72.815-22.571 111.868-21.773 39.048 0.797 77.010 9.734 105.338 27.065 17.652 10.799 31.564 24.858 39.662 42.238 18.875 40.509-97.803 58.821-98.137 58.875l-0.155 0.025-0.026 0.153c-0.011 0.065-4.105 22.604-1.079 47.32l0.039 0.1c28.082 40.030 39.013 72.493 39.216 98.422 0.124 15.841-3.757 29.246-10.177 40.447s-15.382 20.206-25.415 27.245c-20.258 14.212-44.883 20.414-61.802 20.546-18.349 0.143-47.567-7.735-69.941-25.634-8.892-7.113-16.704-15.812-22.317-26.217-5.612-10.402-9.031-22.516-9.14-36.463zM928.158 406.148c-79.753 99.695 4.98 137.258 38.474 136.994s109.699-34.173 41.155-131.882c-2.132-17.409 0.76-33.327 0.76-33.327s82.725-12.983 69.326-41.739c-31.026-66.58-182.632-64.171-222.041 0.249-18.138 29.646 71.334 41.497 71.334 41.497l0.993 28.208zM927.936 406.077c-24.316 30.416-33.341 55.067-33.188 74.633 0.078 9.901 2.505 18.502 6.491 25.889 3.984 7.384 9.527 13.556 15.835 18.603 15.851 12.68 36.556 18.262 49.56 18.16 11.992-0.094 29.444-4.489 43.798-14.558 7.117-4.993 13.476-11.383 18.033-19.334 4.558-7.954 7.314-17.47 7.226-28.714-0.144-18.347-7.864-41.299-27.692-69.576-1.998-16.39 0.452-31.399 0.737-33.055 3.786-0.61 82.553-13.658 69.335-42.023-5.744-12.327-15.606-22.296-28.117-29.949-20.037-12.257-46.875-18.578-74.475-19.141-27.596-0.564-55.961 4.626-79.057 15.389-17.475 8.142-31.938 19.478-40.777 33.928-17.88 29.222 67.018 41.217 71.308 41.804l0.983 27.943zM895.186 480.706c-0.153-19.488 8.858-44.065 33.142-74.421l0.048-0.144-0.992-28.207-0.007-0.184-0.183-0.025c-0.255-0.035-89.138-11.811-71.177-41.167 8.791-14.371 23.189-25.65 40.59-33.759 23.035-10.735 51.331-15.911 78.864-15.349 27.527 0.562 54.287 6.861 74.255 19.076 12.438 7.609 22.242 17.517 27.947 29.762 13.276 28.489-68.926 41.393-69.161 41.43l-0.155 0.025-0.026 0.153c-0.007 0.045-2.897 15.95-0.761 33.39l0.039 0.1c19.796 28.218 27.502 51.099 27.645 69.373 0.087 11.16-2.647 20.603-7.169 28.493-4.523 7.891-10.837 14.235-17.905 19.193-14.276 10.014-31.627 14.385-43.549 14.478-12.929 0.101-33.517-5.451-49.284-18.063-6.264-5.012-11.767-11.14-15.722-18.469-3.954-7.328-6.362-15.861-6.439-25.685zM74.983 406.148c-79.753 99.695 4.98 137.258 38.474 136.994s109.699-34.173 41.155-131.882c-2.132-17.409 0.76-33.327 0.76-33.327s82.725-12.983 69.326-41.739c-31.026-66.58-182.632-64.171-222.041 0.249-18.138 29.646 71.334 41.497 71.334 41.497l0.993 28.208zM74.762 406.077c-24.316 30.415-33.342 55.067-33.188 74.633 0.077 9.901 2.505 18.502 6.49 25.888 3.984 7.384 9.527 13.556 15.835 18.603 15.851 12.681 36.557 18.263 49.561 18.161 11.992-0.094 29.443-4.488 43.797-14.558 7.117-4.993 13.476-11.383 18.033-19.334 4.558-7.954 7.314-17.47 7.226-28.714-0.144-18.347-7.864-41.299-27.692-69.576-1.998-16.39 0.452-31.399 0.737-33.055 3.786-0.61 82.553-13.658 69.335-42.023-5.744-12.327-15.606-22.295-28.116-29.949-20.037-12.257-46.875-18.578-74.476-19.142-27.596-0.564-55.962 4.627-79.058 15.389-17.475 8.142-31.938 19.478-40.777 33.928-17.879 29.222 67.014 41.216 71.308 41.804l0.984 27.943zM42.012 480.706c-0.153-19.488 8.859-44.065 33.142-74.421l0.048-0.144-0.993-28.207-0.006-0.184-0.183-0.025c-0.255-0.035-89.138-11.811-71.177-41.167 8.791-14.371 23.189-25.65 40.59-33.759 23.036-10.735 51.332-15.911 78.864-15.349 27.528 0.562 54.288 6.862 74.255 19.077 12.438 7.609 22.241 17.517 27.947 29.761 13.276 28.489-68.926 41.393-69.161 41.43l-0.154 0.025-0.027 0.153c-0.007 0.045-2.897 15.95-0.761 33.39l0.039 0.1c19.796 28.218 27.502 51.099 27.645 69.373 0.087 11.16-2.647 20.603-7.169 28.493s-10.837 14.235-17.905 19.193c-14.276 10.015-31.627 14.385-43.548 14.478-12.929 0.101-33.518-5.451-49.284-18.064-6.264-5.012-11.767-11.14-15.722-18.469-3.953-7.328-6.362-15.861-6.438-25.685zM825.299 46.927l-173.58 254.71 60.285 41.143 173.58-254.71z" />
<glyph unicode="&#xe642;" glyph-name="hospitalbilling" d="M0-64h512v1024h-512v-1024zM320 832h128v-128h-128v128zM320 576h128v-128h-128v128zM320 320h128v-128h-128v128zM64 832h128v-128h-128v128zM64 576h128v-128h-128v128zM64 320h128v-128h-128v128zM576 640h448v-64h-448zM576-64h128v256h192v-256h128v576h-448z" />
<glyph unicode="&#xe643;" glyph-name="howitswork" horiz-adv-x="1033" d="M520.207 960c37.878 0 72.179-15.363 97.010-40.193 24.831-24.832 40.193-59.133 40.193-97.010s-15.363-72.179-40.193-97.010c-24.83-24.83-59.132-40.193-97.010-40.193s-72.179 15.362-97.010 40.193c-24.83 24.83-40.193 59.132-40.193 97.010s15.362 72.179 40.193 97.010c24.832 24.831 59.133 40.193 97.010 40.193zM583.531 886.121c-16.207 16.207-38.598 26.234-63.324 26.234s-47.117-10.027-63.325-26.234c-16.207-16.207-26.234-38.598-26.234-63.325s10.028-47.117 26.234-63.324c16.207-16.207 38.598-26.234 63.325-26.234s47.117 10.028 63.324 26.234c16.207 16.207 26.234 38.598 26.234 63.324s-10.027 47.117-26.234 63.325zM137.202 210.406c37.878 0 72.179-15.362 97.010-40.193 24.83-24.83 40.193-59.132 40.193-97.010s-15.362-72.179-40.193-97.010c-24.832-24.831-59.133-40.193-97.010-40.193s-72.179 15.363-97.010 40.193c-24.831 24.832-40.193 59.133-40.193 97.010s15.363 72.179 40.193 97.010c24.83 24.83 59.132 40.193 97.010 40.193zM200.527 136.528c-16.207 16.207-38.598 26.234-63.325 26.234s-47.117-10.028-63.324-26.234c-16.207-16.207-26.234-38.598-26.234-63.324s10.027-47.117 26.234-63.325c16.207-16.207 38.598-26.234 63.324-26.234s47.117 10.027 63.325 26.234c16.207 16.207 26.234 38.598 26.234 63.325s-10.028 47.117-26.234 63.324zM518.938 210.406c37.878 0 72.179-15.363 97.010-40.193s40.193-59.132 40.193-97.010c0-37.878-15.362-72.179-40.193-97.010s-59.132-40.193-97.010-40.193-72.179 15.362-97.010 40.193c-24.831 24.832-40.193 59.133-40.193 97.010s15.363 72.179 40.193 97.010c24.832 24.831 59.133 40.193 97.010 40.193zM582.262 136.528c-16.207 16.207-38.598 26.234-63.324 26.234s-47.117-10.027-63.325-26.234c-16.207-16.207-26.234-38.598-26.234-63.324s10.027-47.117 26.234-63.325c16.207-16.207 38.598-26.234 63.325-26.234s47.117 10.028 63.324 26.234c16.207 16.207 26.234 38.598 26.234 63.325s-10.028 47.117-26.234 63.324zM895.96 215.118c37.877 0 72.178-15.362 97.010-40.193s40.193-59.133 40.193-97.010c0-37.878-15.362-72.179-40.193-97.010s-59.132-40.193-97.010-40.193-72.179 15.362-97.010 40.193c-24.831 24.832-40.193 59.133-40.193 97.010s15.363 72.179 40.193 97.010c24.832 24.831 59.133 40.193 97.010 40.193zM959.284 141.24c-16.207 16.207-38.598 26.234-63.324 26.234s-47.117-10.027-63.325-26.234c-16.207-16.207-26.234-38.598-26.234-63.324s10.027-47.117 26.234-63.325c16.207-16.207 38.598-26.234 63.325-26.234s47.117 10.028 63.324 26.234c16.207 16.207 26.234 38.598 26.234 63.325s-10.027 47.117-26.234 63.324zM547.472 729.477v-562.754h-47.644v562.754zM96.757 164.679v186.577l0.14 1.815c0.021 0.429 6.123 149.938 158.823 146.885 117.638-2.353 542.263-0.006 543.487 0h0.419c0.392-0.005 136.778-0.026 136.778-143.987v-189.952h-71.465v189.952c0 70.96-62.349 72.752-65.719 72.799-10.697-0.059-428.241-2.331-544.896 0.002-75.676 1.513-85.042-65.577-86.11-77.514h0.008v-186.577h-71.465z" />
<glyph unicode="&#xe644;" glyph-name="icd9to10" d="M128 640h640v-192l256 256-256 256v-192h-768v-384h128zM896 256h-640v192l-256-256 256-256v192h768v384h-128z" />
<glyph unicode="&#xe645;" glyph-name="ICD-10consultancy" horiz-adv-x="1015" d="M436.116 821.406c0-76.279-61.836-138.115-138.115-138.115s-138.115 61.836-138.115 138.115c0 76.279 61.836 138.115 138.115 138.115s138.115-61.836 138.115-138.115zM298.001 960c38.265 0 72.915-15.517 97.996-40.598s40.598-59.73 40.598-97.996c0-38.265-15.516-72.915-40.598-97.996s-59.731-40.598-97.996-40.598c-38.265 0-72.915 15.517-97.996 40.598s-40.598 59.731-40.598 97.996c0 38.266 15.516 72.915 40.598 97.996s59.731 40.598 97.996 40.598zM395.319 918.723c-24.909 24.909-59.318 40.318-97.318 40.318s-72.409-15.409-97.318-40.318c-24.909-24.908-40.318-59.318-40.318-97.318s15.409-72.41 40.318-97.318c24.909-24.909 59.318-40.318 97.318-40.318s72.409 15.409 97.318 40.318c24.909 24.908 40.318 59.317 40.318 97.318s-15.409 72.41-40.318 97.318zM1014.144 440.659c0-76.279-61.836-138.115-138.115-138.115s-138.115 61.836-138.115 138.115c0 76.279 61.836 138.115 138.115 138.115s138.115-61.836 138.115-138.115zM876.029 579.253c38.265 0 72.915-15.517 97.996-40.598s40.598-59.731 40.598-97.996c0-38.265-15.517-72.915-40.598-97.996s-59.731-40.598-97.996-40.598c-38.265 0-72.915 15.517-97.996 40.598s-40.598 59.731-40.598 97.996c0 38.265 15.517 72.915 40.598 97.996s59.731 40.598 97.996 40.598zM973.347 537.976c-24.909 24.909-59.318 40.318-97.318 40.318s-72.409-15.409-97.318-40.318c-24.909-24.909-40.318-59.318-40.318-97.318s15.409-72.409 40.318-97.318c24.909-24.909 59.318-40.318 97.318-40.318s72.409 15.409 97.318 40.318c24.909 24.909 40.318 59.318 40.318 97.318s-15.409 72.409-40.318 97.318zM405.543 74.594c0-76.279-61.836-138.115-138.115-138.115s-138.115 61.836-138.115 138.115c0 76.279 61.836 138.115 138.115 138.115s138.115-61.836 138.115-138.115zM267.428 213.189c38.265 0 72.915-15.517 97.996-40.598s40.598-59.731 40.598-97.996c0-38.266-15.516-72.915-40.598-97.996s-59.731-40.598-97.996-40.598c-38.265 0-72.915 15.517-97.996 40.598s-40.598 59.73-40.598 97.996c0 38.265 15.516 72.915 40.598 97.996s59.731 40.598 97.996 40.598zM364.746 171.912c-24.909 24.909-59.318 40.318-97.318 40.318s-72.409-15.409-97.318-40.318c-24.909-24.908-40.318-59.317-40.318-97.318s15.409-72.41 40.318-97.318c24.909-24.909 59.318-40.318 97.318-40.318s72.409 15.409 97.318 40.318c24.909 24.908 40.318 59.318 40.318 97.318s-15.409 72.41-40.318 97.318zM163.884 653.77c-0.203-0.251-71.008-86.032-68.296-212.174 1.050-48.829 9.848-90.513 21.293-124.496 18.301-54.342 42.353-87.098 51.983-97.966l-71.56-63.318c-13.689 15.448-47.478 60.821-71.091 130.936-14.063 41.759-24.874 92.976-26.164 152.97-3.472 161.5 89.385 274.041 89.652 274.369l74.183-60.32zM469.957 73.699c0.26 0.004 89.991 1.026 180.002 51.678 33.897 19.075 61.429 42.633 82.74 65.404 33.417 35.704 50.367 65.557 52.508 73.734l92.541-23.979c-4.179-15.967-29.802-66.269-75.362-114.947-27.529-29.414-62.766-59.661-105.594-83.762-110.785-62.342-225.006-63.662-225.337-63.667l-1.499 95.539zM792.091 600.616c-0.701 1.227-1.805 3.51-3.385 6.78-7.683 15.896-38.182 79.001-112.661 132.725-29.297 21.133-61.179 35.777-90.682 45.871-52.448 17.945-94.483 21.202-104.066 21.257l0.375 95.539c13.264-0.076 70.041-4.103 134.414-26.128 37.045-12.675 77.559-31.41 115.784-58.983 94.381-68.079 133.224-148.447 143.008-168.692 0.197-0.409 0.336-0.695 0.388-0.786l-83.175-47.582z" />
<glyph unicode="&#xe646;" glyph-name="icd-10services" d="M933.79 349.75c-53.726 93.054-21.416 212.304 72.152 266.488l-100.626 174.292c-28.75-16.854-62.176-26.518-97.846-26.518-107.536 0-194.708 87.746-194.708 195.99h-201.258c0.266-33.41-8.074-67.282-25.958-98.252-53.724-93.056-173.156-124.702-266.862-70.758l-100.624-174.292c28.97-16.472 54.050-40.588 71.886-71.478 53.638-92.908 21.512-211.92-71.708-266.224l100.626-174.292c28.65 16.696 61.916 26.254 97.4 26.254 107.196 0 194.144-87.192 194.7-194.958h201.254c-0.086 33.074 8.272 66.57 25.966 97.218 53.636 92.906 172.776 124.594 266.414 71.012l100.626 174.29c-28.78 16.466-53.692 40.498-71.434 71.228zM512 240.668c-114.508 0-207.336 92.824-207.336 207.334 0 114.508 92.826 207.334 207.336 207.334s207.332-92.826 207.332-207.334c-0.002-114.51-92.824-207.334-207.332-207.334z" />
<glyph unicode="&#xe647;" glyph-name="icd-10training" d="M512 768c142 0 256-115 256-256 0-69-28-132-72-178l-16-93c91 56 152 156 152 271 0 177-143 320-320 320s-320-143-320-320c0-115 61-215 152-271l-16 93c-45 46-72 109-72 178 0 142 114 256 256 256zM448 448c-36 0-64-29-64-64v-128c0-36 30-64 64-64v-256h128v256c34 0 64 28 64 64v128c0 35-28 64-64 64s-64 0-64 0-28 0-64 0zM640 576c0 71-57 128-128 128s-128-57-128-128 57-128 128-128 128 57 128 128zM512 960c-247 0-448-201-448-448 0-197 128-363 305-423l-12 72c-135 60-229 194-229 351 0 212 172 384 384 384s384-172 384-384c0-157-94-291-229-351l-12-72c177 60 305 225 305 423 0 247-201 448-448 448z" />
<glyph unicode="&#xe648;" glyph-name="icd-10" d="M53.8 874.667h997.287c14.826 0 28.282-6.045 38.018-15.781 9.738-9.737 15.781-23.195 15.781-38.018v-621.192c0-14.826-6.043-28.282-15.781-38.018-9.737-9.738-23.192-15.781-38.018-15.781h-997.287c-14.826 0-28.282 6.043-38.018 15.781-9.738 9.737-15.781 23.192-15.781 38.018v621.192c0 14.824 6.043 28.282 15.781 38.018s23.192 15.781 38.018 15.781zM1047.997 817.777h-991.108v-615.011h991.108v615.011zM403.484 182.772h297.919v-154.242h-297.919zM224.945-30.631h654.998l-25.355 57.048-602.177-2.112zM186.601 427.811v178.638h23.508v-178.638h-23.508zM379.255 490.5l23.699-5.924c-10.193-39.818-34.911-59.758-74.092-59.758-28.732 0-49.884 8.983-63.453 26.948-13.57 18.029-20.387 40.263-20.387 66.766 0 30.070 8.091 52.751 24.273 68.040 16.182 15.226 36.186 22.871 59.949 22.871 36.951 0 60.459-17.329 70.525-51.922l-23.126-5.606c-7.964 24.909-23.891 37.332-47.781 37.332-19.304 0-34.020-6.18-44.277-18.666-10.193-12.423-15.289-29.816-15.289-52.050 0-25.738 5.542-44.468 16.5-56.126 11.021-11.595 24.782-17.392 41.155-17.392 28.286 0 45.678 15.162 52.304 45.487zM431.877 427.811v178.638h61.606c11.658 0 22.107-0.828 31.216-2.421 9.174-1.657 17.966-5.798 26.311-12.423 8.41-6.69 15.29-16.182 20.578-28.542 5.287-12.423 7.9-27.394 7.9-44.914 0-26.885-6.371-48.673-19.113-65.301-12.742-16.691-34.147-25.037-64.090-25.037h-64.409zM455.577 448.899h38.034c15.736 0 27.712 2.293 36.058 6.88 8.346 4.651 14.653 12.295 19.049 23.062 4.332 10.767 6.498 24.018 6.498 39.69 0 10.958-1.083 20.514-3.249 28.732s-5.415 15.099-9.811 20.705c-4.333 5.606-9.874 9.875-16.628 12.869-6.69 2.994-17.52 4.523-32.427 4.523h-37.524v-136.463zM600.576 481.39v22.043h67.403v-22.043h-67.403zM768.765 427.811h-21.852v139.775c-11.658-11.149-26.311-20.004-43.831-26.502v21.278c25.483 11.978 42.684 26.885 51.476 44.787h14.207v-179.339zM824.955 515.919c0 60.841 19.495 91.23 58.42 91.23 38.862 0 58.229-30.389 58.229-91.23 0-60.714-19.367-91.102-58.229-91.102-38.925 0-58.42 30.389-58.42 91.102zM847.571 515.919c0-48.801 11.913-73.2 35.804-73.2 23.763 0 35.677 24.4 35.677 73.2 0 48.737-12.041 73.137-36.059 73.137-23.635 0-35.421-24.4-35.421-73.137z" />
<glyph unicode="&#xe649;" glyph-name="inhousejobs" horiz-adv-x="973" d="M731.314 694.319l-78.466-449.291 144.703-109.901 122.909 99.010-94.329 469.131 47.145 9.429 100.089-497.777-174.86-140.858-198.2 150.533 83.484 478.023zM663.842 469.887h-524.343c-9.915-1.13-67.024-10.588-67.024-78.816v-323.36l-0.141-2.122c-0.010-0.163-3.781-57.172 26.871-57.172h601.526c14.272 5.751 51.218 22.88 55.005 47.438 6.476 42.006 8.299 36.91 8.294 36.923l66.759 27.723c0.017-0.040 6.093-13.556-3.485-75.678-11.358-73.666-108.406-106.604-108.685-106.7l-11.74-2.122h-607.676c-100.352 0-99.747 114.677-99.107 131.711h-0.039v323.36c0 142.42 135.146 151.063 135.534 151.092l2.687 0.141h525.563v-72.417zM87.477 493.853c0.539-0.541 187.507-188.192 246.768-220.558 66.057-36.074 119.703-43.273 165.394-29.412 46.283 14.041 86.428 50.076 124.201 99.93l38.472-29.042c-43.559-57.491-91.307-99.486-148.718-116.903-58.004-17.597-123.863-9.683-202.357 33.183-65.583 35.818-257.34 228.302-257.894 228.856l34.134 33.946zM516.375 224.699c0.287-0.867 0.667-2.193 1.139-3.997 0.403-1.537 0.719-2.884 0.94-4.019 3.548-18.231-0.936-36.202-11.056-50.513-9.997-14.139-25.509-24.702-44.164-28.334-18.583-3.617-36.876 0.356-51.426 9.699-14.772 9.487-25.692 24.507-29.254 42.804-1.148 5.9-1.439 11.998-0.888 18.119v0.063c0.547 6.063 1.938 12.047 4.156 17.776l29.922-11.566c-1.15-2.97-1.868-6.034-2.145-9.102l-0.006 0.001c-0.265-3.003-0.095-6.117 0.516-9.255 1.801-9.253 7.42-16.911 15.046-21.808 7.848-5.040 17.816-7.163 28.041-5.173 10.153 1.976 18.553 7.664 23.923 15.259 5.249 7.424 7.589 16.678 5.776 25.997-0.172 0.888-0.318 1.555-0.437 2.007-0.055 0.212-0.272 0.886-0.636 1.986l30.551 10.057zM802.4 570.963c-0.197-0.705-68.989-245.812-68.989-265.428 0-7.804 12.168-21.22 24.833-35.183 8.9-9.813 18-19.844 24.677-29.86l-26.779-17.852c-5.874 8.811-13.854 17.608-21.66 26.214-16.961 18.7-33.256 36.664-33.256 56.681 0 23.891 70.045 273.386 70.246 274.104l30.928-8.675zM172.124 266.374v-188.407h445.121v-32.185h-477.306v220.592zM769.436 960c-79.976 0-144.833-64.857-144.833-144.833s64.857-144.833 144.833-144.833c79.976 0 144.833 64.857 144.833 144.833s-64.857 144.833-144.833 144.833zM769.436 902.066c47.986 0 86.9-38.915 86.9-86.9s-38.914-86.9-86.9-86.9c-47.986 0-86.9 38.915-86.9 86.9s38.914 86.9 86.9 86.9z" />
<glyph unicode="&#xe64a;" glyph-name="infograph" horiz-adv-x="1027" d="M460.24 746.378h107.618v-505.156h-107.618zM284.966 624.448h109.493v-381.985h-109.493zM623.398 559.747h109.493v-320.392h-109.493zM4.059 478.913c9.513 128.861 64.554 249.023 153.883 337.138 84.289 83.143 198.92 137.644 334.469 143.948l3.784-87.714c-112.306-5.223-207.115-50.215-276.683-118.839-74.11-73.103-119.8-173.157-127.741-280.725l-87.714 6.192zM545.163 957.26c128.833-9.327 249.005-64.148 337.167-153.27 83.348-84.257 138.063-198.824 144.555-334.282l-87.714-4.128c-5.387 112.381-50.463 207.11-119.101 276.496-73.289 74.087-173.477 119.681-281.1 127.472l6.192 87.714zM1022.845 418.156c-9.2-128.814-63.915-249.033-152.97-337.301-84.156-83.413-198.672-138.228-334.154-144.854l-4.128 87.714c112.347 5.494 207.030 50.674 276.368 119.399 73.996 73.341 119.483 173.577 127.172 281.235l87.714-6.192zM482.962-61.376c-128.906 9.021-249.258 63.579-337.673 152.529-83.504 84.009-138.468 198.451-145.29 333.965l87.713 4.128c5.653-112.295 50.984-206.912 119.835-276.179 73.427-73.871 173.673-119.2 281.262-126.73l-5.848-87.714z" />
<glyph unicode="&#xe64b;" glyph-name="information" d="M559.101 74.33c0-3.025-0.807-5.848-2.42-7.864-1.613-2.218-4.234-4.033-7.662-5.647-3.63-1.612-8.47-2.823-14.721-3.63-6.453-0.807-14.518-1.21-24.399-1.21-9.275 0-17.139 0.403-23.593 1.21-6.251 0.807-11.292 2.017-14.922 3.63-3.831 1.613-6.453 3.429-7.662 5.647-1.411 2.016-2.218 4.839-2.218 7.864v531.747c0 2.823 0.807 5.243 2.218 7.663 1.21 2.419 3.831 4.436 7.662 5.848 3.63 1.613 8.672 2.823 14.922 3.63 6.453 0.807 14.317 1.21 23.593 1.21 9.881 0 17.947-0.403 24.399-1.21 6.252-0.807 11.091-2.016 14.721-3.63 3.428-1.411 6.049-3.429 7.662-5.848s2.42-4.84 2.42-7.663v-531.747zM570.191 785.746c0-22.988-4.234-38.515-12.906-46.783s-24.6-12.3-47.79-12.3c-22.988 0-38.515 4.033-46.985 12.099s-12.703 23.189-12.703 45.774c0 22.786 4.234 38.313 12.905 46.581s24.601 12.502 47.791 12.502c22.988 0 38.515-4.033 46.984-12.099s12.704-23.391 12.704-45.774zM512.001 885.245c-241.442 0-437.245-195.799-437.245-437.245 0-241.444 195.803-437.245 437.245-437.245s437.245 195.801 437.245 437.245c0 241.446-195.803 437.245-437.245 437.245zM512.001 960c282.72 0 512.001-229.277 512.001-512.001s-229.279-512.001-512.001-512.001c-282.72 0-512.001 229.277-512.001 512.001s229.279 512.001 512.001 512.001z" />
<glyph unicode="&#xe64c;" glyph-name="knowmore" horiz-adv-x="890" d="M121.649 938.691c-87.036 9.039-100.345-82.506-100.345-82.506s-2.23-595.381 2.229-666.738c4.46-71.356 93.656-84.736 93.656-84.736s298.638 4.46 396.753-6.69c94.12-108.698 307.499-162.113 258.835-133.794s-112.548 128.2-64.667 140.484c104.805-6.69 153.862 44.598 158.322 71.356 4.46 26.76 2.23 593.152-2.229 662.278s-69.127 93.656-80.276 98.116c-11.149 4.46-662.278 2.229-662.278 2.229zM431.345 357.699h-8.942l-46.396 369.483c-3.88 30.368-5.905 53.82-5.905 70.354 0 21.764 5.398 38.635 16.365 50.951 10.797 12.148 25.813 18.221 44.878 18.221 18.052 0 32.393-5.905 43.191-17.883 10.629-11.811 16.028-28.176 16.028-48.928 0-14.509-2.025-35.429-5.905-62.761l-53.313-379.437zM425.946 296.456c16.534 0 30.537-5.905 42.179-17.546s17.546-25.983 17.546-42.685c0-16.534-5.905-30.706-17.546-42.347s-25.645-17.546-42.179-17.546c-16.534 0-30.537 5.905-42.178 17.546s-17.547 25.814-17.547 42.347c0 16.703 5.905 31.044 17.547 42.685s25.645 17.546 42.178 17.546z" />
<glyph unicode="&#xe64d;" glyph-name="linkedin" d="M384 576h177.106v-90.782h2.532c24.64 44.194 84.958 90.782 174.842 90.782 186.946 0 221.52-116.376 221.52-267.734v-308.266h-184.61v273.278c0 65.184-1.334 149.026-96.028 149.026-96.148 0-110.82-70.986-110.82-144.292v-278.012h-184.542v576zM64 576h192v-576h-192v576zM256 736c0-53.020-42.98-96-96-96s-96 42.98-96 96c0 53.020 42.98 96 96 96s96-42.98 96-96z" />
<glyph unicode="&#xe64e;" glyph-name="medicalbillingglossary" d="M772.557 728.477h93.792v167.523h-738.348v-870.076h607.012l5.669 670.802 0.268 31.75h31.607zM898.348 664.477h-94.185l-5.669-670.802-0.269-31.75-734.225-0.001v998.076h866.347v-295.524l-32 0.001zM927.836 590.427v-246.59h-64v246.59zM925.848 248.382v-246.59h-64v246.59zM215.753 488.97h423.129v-64h-423.129zM215.753 345.267h423.129v-64h-423.129zM215.753 197.571h423.129v-64h-423.129zM183.387 595.341l141.203 272.32 131.478-273.070-57.499-27.75-76.095 158.042-82.336-158.792zM224.193 664.608h191.604v-64h-191.604z" />
<glyph unicode="&#xe64f;" glyph-name="medicalbillinginsights" horiz-adv-x="936" d="M697.2 368.316v0c8.168-10.574 7.746-25.449-1.014-35.529l-25.005-28.761c-8.76-10.076-23.453-12.583-35.040-5.943l-38.035 21.685c-5.701-3.269-11.557-6.161-17.546-8.713l-5.584-43.494c-1.695-13.249-12.513-23.45-25.835-24.38l-38.031-2.659c-7.649-0.533-14.884 2.060-20.361 6.821-4.039 3.511-7.11 8.245-8.615 13.729l-11.578 42.295c-6.245 1.7-12.466 3.727-18.567 6.171l-34.67-26.746c-10.561-8.176-25.45-7.745-35.525 1.014l-28.762 25.004c-10.077 8.761-12.571 23.424-5.943 35.042l21.684 38.034c-3.268 5.7-6.161 11.557-8.703 17.537l-43.494 5.581c-5.632 0.719-10.745 3.104-14.806 6.634-5.467 4.753-9.039 11.554-9.574 19.205l-2.659 38.031c-0.94 13.313 7.667 25.454 20.552 28.979l42.273 11.593c1.698 6.245 3.737 12.456 6.181 18.557l-26.755 34.678c-8.176 10.562-7.736 25.442 1.024 35.519l25.005 28.76c8.76 10.079 23.424 12.571 35.030 5.954l38.055-21.702c5.701 3.269 11.556 6.161 17.526 8.713l5.593 43.484c1.696 13.249 12.515 23.448 25.836 24.38l38.021 2.667c7.649 0.535 14.882-2.058 20.349-6.811 4.061-3.532 7.13-8.243 8.639-13.748l11.573-42.275c6.247-1.7 12.456-3.739 18.559-6.183l34.666 26.765c10.574 8.169 25.442 7.738 35.519-1.023l28.761-25.006c10.077-8.759 12.593-23.422 5.954-35.030l-21.682-38.053c3.268-5.7 6.161-11.558 8.723-17.537l43.484-5.592c5.642-0.707 10.745-3.102 14.796-6.623 5.477-4.761 9.051-11.563 9.584-19.213l2.659-38.031c0.939-13.313-7.667-25.454-20.55-28.978l-42.295-11.576c-1.7-6.247-3.728-12.467-6.171-18.567l26.755-34.658zM611.968 344.105c-8.627 4.92-19.203 4.906-27.815-0.047-4.757-2.717-9.633-5.123-14.599-7.249-9.164-3.896-15.536-12.356-16.795-22.197l-5.579-43.494-38.034-2.657-11.575 42.295c-1.482 5.428-4.536 10.181-8.639 13.748-3.139 2.729-6.907 4.781-11.038 5.903-5.223 1.422-10.397 3.096-15.505 5.143-9.196 3.687-19.671 2.231-27.529-3.839l-34.689-26.767-28.762 25.005 21.705 38.053c4.918 8.627 4.903 19.205-0.036 27.808-2.717 4.757-5.135 9.642-7.259 14.608-1.678 3.964-4.222 7.402-7.372 10.142-4.115 3.576-9.234 5.929-14.816 6.641l-43.494 5.582-2.657 38.033 42.283 11.585c9.581 2.625 17.051 10.13 19.651 19.678 1.422 5.223 3.108 10.386 5.155 15.495 3.687 9.196 2.221 19.681-3.842 27.53l-26.755 34.68 24.993 28.789 38.055-21.703c8.615-4.909 19.203-4.906 27.805 0.036 4.757 2.716 9.632 5.143 14.608 7.259 9.144 3.896 15.526 12.346 16.773 22.196l5.604 43.476 38.021 2.667 11.585-42.285c1.481-5.427 4.536-10.18 8.639-13.748 3.139-2.73 6.897-4.771 11.038-5.902 5.214-1.413 10.386-3.107 15.485-5.145 9.206-3.697 19.692-2.229 27.542 3.831l34.668 26.764 28.771-24.993-21.705-38.055c-4.91-8.617-4.906-19.203 0.048-27.815 2.715-4.755 5.131-9.623 7.245-14.601 1.7-3.962 4.232-7.389 7.394-10.139 4.113-3.576 9.234-5.929 14.816-6.641l43.484-5.592 2.657-38.033-42.295-11.576c-9.578-2.625-17.028-10.127-19.649-19.677-1.412-5.214-3.098-10.397-5.135-15.494-3.697-9.208-2.239-19.683 3.831-27.541l26.754-34.66-24.971-28.789-38.065 21.693zM578.848 539.511c-40.869 35.531-102.839 31.199-138.368-9.669-35.539-40.881-31.2-102.837 9.669-138.368s102.837-31.201 138.368 9.669c35.529 40.869 31.201 102.837-9.669 138.368zM458.183 400.716c-35.76 31.090-39.542 85.321-8.46 121.071 31.090 35.762 85.31 39.551 121.073 8.459 35.75-31.079 39.549-85.31 8.459-121.070-31.082-35.752-85.322-39.542-121.072-8.46zM551.268 507.79c-23.368 20.315-58.75 17.842-79.067-5.526-20.307-23.358-17.843-58.752 5.525-79.069 23.358-20.307 58.76-17.833 79.067 5.525s17.834 58.761-5.525 79.070zM486.911 433.76c-17.511 15.224-19.368 41.79-4.143 59.301 15.222 17.511 41.788 19.368 59.299 4.143s19.368-41.79 4.143-59.302c-15.223-17.509-41.791-19.365-59.299-4.143zM272.982-64.001h342.461c0 0 6.342 118.381 76.103 118.381s157.335-33.126 181.8 48.621c-23.191 40.741 5.801 69.847 5.801 69.847s11.082 12.191-3.325 31.031c-14.408 18.841 21.057 14.407 13.299 28.815s-22.166 32.14-9.974 36.573c12.191 4.433 56.521 14.407 56.521 28.815s-85.336 101.96-89.77 113.043c-4.433 11.083-2.216 123.018-8.866 146.291s-56.522 170.673-216.112 203.921c-159.59 33.248-252.685-35.465-252.685-35.465s-166.24-108.61-148.507-301.448c17.732-192.839 113.043-170.673 119.692-328.047-9.974-113.043-66.438-160.378-66.438-160.378zM396.12 829.947l11.010-27.522c0 0-301.635-118.652-218.426-456.38-11.918-3.86-13.233-4.038-29.289-9.384-14.679 39.145-86.352 356.282 236.706 493.287zM334.558 959.631l7.342-28.745c-205.104-66.49-372.153-321.933-287.721-640.085-11.841-3.477-14.526-4.207-30.504-8.32-66.064 220.226-1.66 564.788 310.884 677.148zM362.299 895.278l11.010-27.522c-109.418-42.178-339.229-210.757-256.021-548.486-11.918-3.86-9.563-0.369-25.619-5.715-20.796 48.931-95.243 422.699 270.63 581.722z" />
<glyph unicode="&#xe650;" horiz-adv-x="1166" d="M207.99 704.539h748.391v-768.244h-748.391z" />
<glyph unicode="&#xe651;" horiz-adv-x="1166" d="M155.007 701.228v-764.947c0 0-136.155 3.070-149.015 96.032s0 559.622 0 559.622c0 0 11.557 111.111 149.015 109.294z" />
<glyph unicode="&#xe652;" horiz-adv-x="1166" d="M1011.213 710.793v-764.947c0 0 136.184 3.071 149.047 96.032s0 559.622 0 559.622c0 0-11.56 111.111-149.047 109.295z" />
<glyph unicode="&#xe653;" horiz-adv-x="1166" d="M207.99 704.812l748.664-0.273v-768.516l-748.937 0.273v768.516h0.273zM956.107 704.265h-747.844v-767.698h747.844v767.698z" />
<glyph unicode="&#xe654;" horiz-adv-x="1166" d="M155.28 701.228v-765.228l-0.28 0.008c-0.391 0.011-136.387 3.074-149.279 96.268-12.862 92.982-0.038 558.324-0.002 559.665l0.001 0.024c0.037 0.318 11.584 111.355 149.289 109.536l0.27-0.004v-0.269zM154.734-63.44v764.396c-136.748 1.66-148.399-108.401-148.47-109.043-0.052-1.899-12.851-466.677-0.001-559.563 12.521-90.511 141.919-95.588 148.472-95.789z" />
<glyph unicode="&#xe655;" horiz-adv-x="1166" d="M1011.486 710.52v-764.396c6.554 0.201 135.98 5.28 148.503 95.789 12.852 92.885 0.050 557.663-0.001 559.563-0.071 0.642-11.725 110.704-148.502 109.044zM1010.939-54.155v765.216l0.27 0.004c137.734 1.819 149.284-109.218 149.321-109.536l0.001-0.024c0.036-1.341 12.863-466.682-0.002-559.665-12.895-93.191-148.919-96.256-149.31-96.268l-0.28-0.008v0.28z" />
<glyph unicode="&#xe656;" horiz-adv-x="1166" d="M725.378 702.719v152.327l0.178 2.668c0.001 0.029 0.768 10.707-10.884 10.094-57.302-3.016-227.697 0.566-262.778 1.349-5.533-1.507-12.968-3.634-12.968-4.177v-162.261h-91.055v162.261c0 71.986 86.895 93.534 87.145 93.599l12.271 1.422c0.577-0.013 200.841-4.753 262.761-1.495 103.848 5.465 106.665-86.523 106.31-103.461h0.075v-152.327h-91.055z" />
<glyph unicode="&#xe657;" glyph-name="medicalbillingservices" horiz-adv-x="1095" d="M1054.645 164.408h-223.492l-0.090-36.261-0.078-31.264h-161.755l-0.198 31.142-0.234 36.555-251.534 0.399-0.306-43.968-0.215-31.017-162.281-0.010 0.114 31.142 0.161 43.898-254.738 0.003v460.157l0.122 0.244c0.003 0.46-0.066 160.618 133.927 160.618l856.176-0.855c0.299-0.069 104.621-23.281 104.621-142.131 0-89.837-9.035-447.091-9.061-448.12l-0.776-30.531h-30.365zM800.089 226.935h224.172c2.136 87.087 8.058 335.796 8.058 416.125 0 59.266-41.572 76.723-53.243 80.459h-845.026c-69.656 0-71.588-93.077-71.643-98.335h0.121v-397.874l254.723-0.004-0.115-31.141-0.161-43.896 37.92 0.003 0.306 44.018 0.216 31.068 375.27-0.594 0.198-30.97 0.232-36.383h37.743l0.089 36.261 0.077 31.264h31.064zM80.299 200.495l236.961 1.121 0.652-30.675 0.385-18.081 37.611 0.147 0.372 18.408 0.615 30.385 372.464 1.766 0.91-30.429 0.436-14.568 38.712 0.155 0.444 14.894 0.899 30.141 283.865 1.351v-151.95l-0.122-0.366c-0.004-0.285-0.078-99.355-117.467-111.094-90.729-9.073-760.959-4.603-762.891-4.591l-3.664 0.122c-0.351 0.044-122.76 14.383-121.208 115.179 1.108 72.014 0.007 116.202 0.005 116.331l-0.714 31.601 31.733 0.15zM256.284 139.045l-144.301-0.683c0.14-20.407 0.139-49.991-0.426-86.682-0.641-41.67 58.222-51.253 65.716-52.305 46.823-0.3 668.832-4.117 753.658 4.365 58.18 5.818 61.13 45.234 61.282 49.422h-0.113v89.371l-160.856-0.766-0.446-14.918-0.901-30.165-159.655-0.636-0.91 30.407-0.435 14.545-250.951-1.19-0.373-18.434-0.615-30.41-159.639-0.623-0.653 30.649-0.384 18.055zM285.991 298.934h129.58v-210.002h-160.843v210.002h31.263zM353.045 236.407h-35.79v-84.947h35.79v84.947zM701.601 303.402h129.58v-210h-160.843v210h31.264zM768.654 240.875h-35.789v-84.947h35.789v84.947zM488.431 339.173v102.311h-128.606v93.122h128.606v122.212h96.467v-122.212h128.606v-93.122h-128.606v-123.153h-96.467v20.842zM530.114 462.326v-102.311h13.101v123.153h128.606v9.755h-128.606v122.212h-13.101v-122.212h-128.605v-9.755h128.605v-20.842zM321.762 777.127v96.082l0.123 1.099c0.009 0.245 2.214 85.693 92.816 85.693l261.357-0.122c0.242-0.002 84.924 0.014 86.689-82.976 1.238-58.206 1.239-92.013 1.239-92.111h-62.527c0 0.128-0.001 44.207-0.993 90.89-0.438 20.648-22.117 21.842-24.653 21.911v-0.118h-261.112c-26.193 0-29.925-19.397-30.45-24.265h0.038v-96.082h-62.527z" />
<glyph unicode="&#xe658;" horiz-adv-x="939" d="M51.718 853.247h660.963c14.248 0 27.183-5.811 36.545-15.173s15.173-22.297 15.173-36.546v-813.809c0-14.248-5.811-27.183-15.173-36.546s-22.297-15.173-36.545-15.173h-660.963c-14.248 0-27.183 5.811-36.545 15.173s-15.173 22.298-15.173 36.546v813.809c0 14.247 5.811 27.183 15.173 36.546s22.297 15.173 36.545 15.173zM712.68 807.644h-660.963c-1.66 0-3.185-0.694-4.303-1.812s-1.812-2.643-1.812-4.303v-813.809c0-1.661 0.694-3.185 1.812-4.303s2.643-1.812 4.303-1.812h660.963c1.66 0 3.185 0.694 4.303 1.812s1.812 2.643 1.812 4.303v813.809c0 1.661-0.694 3.185-1.812 4.303s-2.643 1.812-4.303 1.812z" />
<glyph unicode="&#xe659;" horiz-adv-x="939" d="M248.045 849.638c0 0 109.333 110.362 123.774 110.362s134.095-109.338 134.095-109.338l-257.868-1.024z" />
<glyph unicode="&#xe65a;" horiz-adv-x="939" d="M370.775 934.326c21.217 0 38.435-17.212 38.435-38.435s-17.218-38.435-38.435-38.435c-21.217 0-38.435 17.212-38.435 38.435s17.218 38.435 38.435 38.435z" />
<glyph unicode="&#xe65b;" horiz-adv-x="939" d="M910.615 112.13l28.378 37.626-329.227 248.311-28.378-37.627z" />
<glyph unicode="&#xe65c;" horiz-adv-x="939" d="M569.865 378.238l18.568 22.693-61.89 30.945z" />
<glyph unicode="&#xe65d;" horiz-adv-x="939" d="M159.33 618.304h439.418v-30.4h-439.418z" />
<glyph unicode="&#xe65e;" horiz-adv-x="939" d="M159.33 554.245h439.418v-30.4h-439.418z" />
<glyph unicode="&#xe65f;" horiz-adv-x="939" d="M176.595 372.049v-300.436h438.657v-30.401h-469.058v330.837z" />
<glyph unicode="&#xe660;" horiz-adv-x="939" d="M237.73 211.026h55.7v-150.598h-55.7z" />
<glyph unicode="&#xe661;" horiz-adv-x="939" d="M361.508 266.837h55.701v-206.41h-55.701z" />
<glyph unicode="&#xe662;" horiz-adv-x="939" d="M487.351 301.907h55.701v-237.354h-55.701z" />
<glyph unicode="&#xe663;" glyph-name="medicalcoding" horiz-adv-x="986" d="M23.186 960h963.081v-1024h-986.267v1024h23.187zM939.893 913.627h-893.521v-931.253h893.521v931.253zM283.887 421.448h558.301v-46.373h-558.301zM283.887 277.376h559.133v-46.372h-559.133zM283.887 129.874h559.133v-46.373h-559.133zM140.498 421.448h44.527v-46.373h-44.527zM140.498 277.376h44.593v-46.372h-44.593zM140.498 129.874h44.593v-46.373h-44.593zM530.133 687.809h325.19v-46.373h-325.19zM522.407 808.918h325.189v-46.373h-325.189zM184.883 915.466v-51.794c-93.3-12.762-68.572-110.817-10.341-132.752 101.659-45.746-0.216-103.024-65.392-81.023v-53.44h82.61l1.715-43.087 86.056 1.712c-0.583 13.792-1.149 27.584-1.715 41.376 27.559-4.254 124.705 72.366 41.296 136.191-135.246 65.885-6.528 126.453 39.581 87.919l5.162 43.104-82.609 1.728 0.050 49.867h176.409l-0.033-403.638-411.766-1.23 0.15 405.050 138.826 0.016zM528.734 566.718h325.19v-46.373h-325.19z" />
<glyph unicode="&#xe664;" d="M24.381 886.857h768.035v-687.782h-792.416v687.782h24.381zM743.653 838.094h-694.891v-590.257h694.891v590.257z" />
<glyph unicode="&#xe665;" d="M119.864 446.304l62.623 81.889 26.833-41.742 79.777 275.897 31.746-3.746 14.594-309.404 17.366 52.098h49.498l37.148 88.227 72.977-105.412 48.216 48.215 52.309-71.328-26.159-19.175-29.905 40.78-48.945-48.945-61.551 88.908-22.643-53.777h-47.664l-37.381-112.144-31.556 4.317-14.080 298.507-72.455-250.573-40.431 62.891-34.539-45.165z" />
<glyph unicode="&#xe666;" d="M487.563 399.093h459.645v-433.486h-459.645z" />
<glyph unicode="&#xe667;" d="M487.563 415.347h475.899v-465.994h-492.153v465.994h16.254zM930.955 382.84h-427.138v-400.979h427.138v400.979z" />
<glyph unicode="&#xe668;" d="M674.412 333.696h85.949v-302.693h-85.949z" />
<glyph unicode="&#xe669;" d="M753.088 230.93v-97.161h-85.951v97.161z" />
<glyph unicode="&#xe66a;" d="M868.733 230.93h-302.693v-97.161h302.693z" />
<glyph unicode="&#xe66b;" glyph-name="newsletter" d="M928 832h-832c-52.8 0-96-43.2-96-96v-640c0-52.8 43.2-96 96-96h832c52.8 0 96 43.2 96 96v640c0 52.8-43.2 96-96 96zM398.74 409.628l-270.74-210.892v501.642l270.74-290.75zM176.38 704h671.24l-335.62-252-335.62 252zM409.288 398.302l102.712-110.302 102.71 110.302 210.554-270.302h-626.528l210.552 270.302zM625.26 409.628l270.74 290.75v-501.642l-270.74 210.892z" />
<glyph unicode="&#xe66c;" glyph-name="offer" horiz-adv-x="1203" d="M177.663 509.624c-91.33 0-165.396-74.065-165.396-165.396s74.065-165.396 165.396-165.396c91.33 0 165.396 74.065 165.396 165.396s-74.065 165.396-165.396 165.396zM177.663 411.549c37.173 0 67.32-30.147 67.32-67.32s-30.147-67.32-67.32-67.32c-37.173 0-67.32 30.147-67.32 67.32s30.147 67.32 67.32 67.32zM294.291 613.436l82.366 92.879-59.584 47.316-78.859-92.879zM464.278 415.411l141.947 110.403 283.894-222.559-77.107-70.097c0 0-61.335-19.277-113.908 3.505s-234.826 178.748-234.826 178.748zM331.093 383.867l562.53 441.615c0 0-80.612 113.908-194.52 73.602s-394.297-338.219-450.375-408.317c-56.078-70.097 82.364-106.899 82.364-106.899zM455.516 606.426c9.677 0 17.524-7.455 17.524-16.649s-7.847-16.648-17.524-16.648-17.524 7.455-17.524 16.648c0 9.194 7.847 16.649 17.524 16.649zM165.396 959.999c-91.33 0-165.396-74.065-165.396-165.396s74.065-165.396 165.396-165.396c91.33 0 165.396 74.065 165.396 165.396s-74.065 165.396-165.396 165.396zM165.396 861.923c37.173 0 67.32-30.147 67.32-67.32s-30.147-67.32-67.32-67.32c-37.173 0-67.32 30.147-67.32 67.32s30.147 67.32 67.32 67.32zM769.758 587.183v59.548h154.122l0.218-59.106zM1042.973 586.747v59.984h157.186v-146.24h-59.987v86.253zM1140.098 381.359l59.538-0.913-2.359-154.103-59.103 0.686zM1141.294 94.058l59.983 0.325 0.855-157.183-146.237-0.793-0.328 59.983 86.25 0.468zM770.944-54.696l-0.153 59.548 154.119 0.4 0.374-59.109zM492.478-54.696l-0.156 59.548 154.119 0.4 0.374-59.109zM359.452-1.673l-0.302-59.983-157.184 0.793 0.739 146.24 59.983-0.305-0.436-86.25z" />
<glyph unicode="&#xe66d;" glyph-name="outsourceservices" d="M79.345 562.644c27.511 95.952 85.148 176.991 160.854 234.035 75.767 57.088 169.56 90.178 269.312 90.178 123.549 0 235.422-50.098 316.409-131.084 80.985-80.985 131.083-192.856 131.083-316.408 0-123.55-50.098-235.424-131.083-316.408-80.986-80.986-192.859-131.084-316.409-131.084-31.12 0-62.309 3.324-93.003 9.846-30.358 6.451-60.216 16.146-89.011 28.959l29.714 66.572c23.748-10.567 48.719-18.636 74.439-24.102 25.351-5.387 51.459-8.132 77.861-8.132 103.359 0 196.948 41.908 264.694 109.654s109.654 161.334 109.654 264.694-41.908 196.949-109.654 264.694c-67.746 67.746-161.336 109.654-264.694 109.654-83.564 0-162.027-27.638-225.312-75.321-63.344-47.729-111.562-115.512-134.568-195.748l-70.286 20zM0 525.886l342.879-83.317-64.090-60.885c0 0 192.27-278.79 599.237-9.613 28.887-37.613-256.359-397.355-733.826-160.223 1.602 17.764-73.703-67.294-73.703-67.294l-70.498 381.334zM261.104 523.096c0.097 0.64 32.326 221.864 171.715 341.154l31.62-36.953c-125.37-107.294-155.054-310.85-155.144-311.439l-48.19 7.238zM609.302 863.091c17.867-4.701 90.71-110.899 127.654-246.738 21.26-78.169 32.849-167.397 18.973-254.238l-48 7.62c12.606 78.895 1.738 161.208-18.020 233.856-32.582 119.801-82.599 209.718-92.988 212.451l12.381 47.048zM533.893 850.285v-487.828h-48.763v487.828zM140.229 646.136c7.861 0.366 386.613 1.806 598.293 1.647 41.6-0.032 76.726-0.125 101.279-0.3 11.403-0.081 21.621-0.456 30.613-1.132 11.984 6.477 16.14 4.368 15.373-1.626 38.024-5.44 42.542-19.103 4.996-42.892h-0.095c-2.722-1.708-5.762-2.922-8.968-3.485l-4.282 24.525-1.496 2.358c-9.67-13.094-24.586-26.403-36.331-26.32-24.57 0.176-59.622 0.269-101.089 0.3-210.892 0.158-588.341-1.281-596.197-1.647l-2.095 48.571zM876.816 626.436c-0.285-0.398-0.572-0.797-0.867-1.195l1.488-2.363-0.621 3.558zM445.422 434.907h474.372v-48.763h-474.372z" />
<glyph unicode="&#xe66e;" glyph-name="personalinfo" d="M391.318 506.024c0 0-63.472 105.787-66.495 196.462s30.225 199.484 96.72 241.8c66.495 42.315 108.81-18.135 132.989-30.225s63.472-12.090 81.607-63.472c18.135-51.382 52.895-129.959-16.623-341.534-71.027-164.754-4.534-151.132 22.668-163.222s163.215 0 314.339-178.328c6.091-89.179 6.045-178.326 6.045-178.326h-377.812c0 0 18.135 63.472 15.113 142.057s-75.562 187.394-75.562 187.394c0 0-72.54-102.765-75.562-184.371-3.022-81.608 18.135-148.102 18.135-148.102h-401.991v202.507c0 0 181.355 190.405 323.407 160.189 57.472 24.169 3.023 157.173 3.023 157.173zM522.792-109.056c-27.699 19.653-44.827 61.96-52.893 93.695l110.324-1.51c-10.585-34.756-25.701-72.533-57.431-92.185z" />
<glyph unicode="&#xe66f;" glyph-name="phone" d="M704 320c-64-64-64-128-128-128s-128 64-192 128-128 128-128 192 64 64 128 128-128 256-192 256-192-192-192-192c0-128 131.488-387.488 256-512s384-256 512-256c0 0 192 128 192 192s-192 256-256 192z" />
<glyph unicode="&#xe670;" glyph-name="physiciangroup" d="M442.792 960c26.337 0 50.257-10.54 67.636-27.577 17.457-17.115 28.256-40.753 28.256-66.852s-10.798-49.737-28.256-66.852c-17.379-17.038-41.299-27.577-67.636-27.577s-50.257 10.54-67.636 27.577c-17.457 17.115-28.256 40.752-28.256 66.852s10.799 49.738 28.256 66.852c17.379 17.038 41.299 27.577 67.636 27.577zM480.595 902.090c-9.606 9.418-22.966 15.243-37.803 15.243s-28.197-5.826-37.803-15.243c-9.527-9.34-15.421-22.253-15.421-36.519s5.894-27.179 15.421-36.519c9.606-9.417 22.966-15.243 37.803-15.243s28.197 5.826 37.803 15.243c9.527 9.34 15.421 22.253 15.421 36.519s-5.894 27.178-15.421 36.519zM455.977 708.449c52.657 0.014 74.785 77.78 101.256 49.251 23.348-25.165 37.598-58.633 37.598-95.337 0-78.305-64.807-141.806-144.73-141.806s-144.73 63.501-144.73 141.806c0 39.16 16.209 74.601 42.396 100.262s54.275-54.19 108.21-54.176zM362.387 446.794c16.365-106.323 170.349-96.032 182.74 1.519-29.423-0.398-182.74-1.519-182.74-1.519zM74.388-46.668c0 0-23.391 254.375 0 327.47s111.035 181.192 169.582 175.43c58.548-5.763 48.797-132.41 181.378-156.44 3.761-44.666 6.657-148.42 6.657-148.42-81.087-14.392-61.869-130.622 20.992-139.237 108.381-11.27 128.28 123.468 40.622 139.237-0.455 90.994-7.068 135.831 5.138 148.718 13.882 13.512 132.765 22.099 143.027 159.037 64.651 72.4 179.773-67.873 167.965-159.761-1.292-93.364 3.662-333.531 3.662-333.531h-121.737v217.925h-38.152v-228.216h-379.943v225.277h-44.014v-216.463l-155.176-11.029zM820.918 884.859c14.915 0 28.467-5.975 38.32-15.635 9.905-9.711 16.032-23.123 16.032-37.931s-6.127-28.219-16.033-37.93c-9.852-9.66-23.405-15.635-38.32-15.635-14.914 0-28.467 5.975-38.32 15.635-9.905 9.711-16.033 23.123-16.033 37.93s6.127 28.22 16.032 37.931c9.853 9.66 23.405 15.635 38.32 15.635zM839.35 849.002c-4.671 4.58-11.185 7.413-18.432 7.413s-13.761-2.833-18.432-7.413c-4.619-4.528-7.476-10.79-7.476-17.709s2.858-13.18 7.477-17.708c4.671-4.579 11.184-7.413 18.432-7.413s13.761 2.833 18.432 7.413c4.619 4.528 7.477 10.79 7.477 17.708s-2.858 13.18-7.476 17.709zM828.015 746.724c28.343 0.008 40.253 41.865 54.5 26.509 12.567-13.545 20.237-31.559 20.237-51.314 0-42.147-34.882-76.326-77.9-76.326s-77.9 34.179-77.9 76.326c0 21.077 8.725 40.153 22.819 53.965s29.214-29.167 58.244-29.16zM777.64 605.89c8.808-57.228 91.689-51.689 98.358 0.817-15.837-0.214-98.358-0.817-98.358-0.817zM622.626 340.287c0 0-12.59 136.915 0 176.259s59.764 97.526 91.277 94.424c31.513-3.102 26.265-71.269 97.625-84.203 2.024-24.041 3.583-79.886 3.583-79.886-53.507-5.386-31.062-74.745 11.299-74.944 50.49-0.236 66.441 58.603 21.864 74.944-0.244 48.977-3.805 73.11 2.766 80.047 7.471 7.273 71.46 11.894 76.983 85.601 34.798 38.969 96.762-36.532 90.406-85.991-0.695-50.253 1.971-179.52 1.971-179.52h-65.524v117.297h-20.535v-122.836h-204.502v121.254h-23.69v-116.51l-83.523-5.936z" />
<glyph unicode="&#xe671;" glyph-name="postyourjobrequirement" horiz-adv-x="1014" d="M269.481 312.366c0 0 103.908 0 173.181 39.584 71.741-36.924 131.112-68.020 131.112-68.020s127.355-25.975 92.803 97.619c-59.233 65.595-105.161 99.051-105.161 99.051s79.168 61.851 79.168 158.338c108.594 0.233 371.104-1.222 371.104-1.222l2.474-441.63-254.824-259.773h-497.281l7.422 376.053zM483.751 394.118c0 0 44.425 45.659 53.063 56.765 19.744-16.043 93.432-127.529 92.551-127.104l-145.614 70.338zM151.799 537.264c196.521-180.79 417.356 111.768 259.144 255.441 123.959 33.193 219.404-110.384 106.126-297.398-96.823-159.847-420.034-197.168-365.27 41.957zM177.912 585.762c96.181 39.579 134.831 102.49 168.263 171.93 53.231-30.839 74.275-110.079 24.753-176.878-55.693-61.863-144.818-53.141-193.016 4.948zM4.741 767.588c-12.957-43.185-4.977-163.31 126.194-133.597s194.214 172.475 195.448 239.98c1.127 61.695-82.769 118.771-176.878 63.079s-132.632-129.009-144.763-169.462z" />
<glyph unicode="&#xe672;" glyph-name="practicemanagement" d="M841.143 557.714q0 14.848-10.825 25.746t-25.746 10.825-25.746-10.825-10.825-25.746 10.825-25.746 25.746-10.825 25.746 10.825 10.825 25.746zM914.286 557.714q0-35.401-20.261-63.415t-52.882-40.009v-225.719q0-90.843-75.118-155.136t-180.882-64.293-180.882 64.293-75.118 155.136v75.41q-93.696 11.41-156.599 73.143t-62.83 144.018v292.571q0 14.848 10.825 25.746t25.746 10.825q3.438 0 9.143-1.17 9.728 17.115 26.843 27.429t37.157 10.313q30.281 0 51.712-21.431t21.431-51.712-21.431-51.712-51.712-21.431q-18.871 0-36.571 10.313v-229.742q0-60.562 53.687-103.424t129.17-42.862 129.17 42.862 53.687 103.424v229.742q-17.701-10.313-36.571-10.313-30.281 0-51.712 21.431t-21.431 51.712 21.431 51.712 51.712 21.431q19.968 0 37.157-10.313t26.843-27.429q5.705 1.17 9.143 1.17 14.848 0 25.746-10.825t10.825-25.746v-292.571q0-82.286-62.83-144.018t-156.599-73.143v-75.41q0-60.562 53.687-103.424t129.17-42.862 129.17 42.862 53.687 103.424v225.719q-32.549 11.995-52.882 40.009t-20.261 63.415q0 45.714 32.037 77.678t77.678 32.037 77.678-32.037 32.037-77.678z" />
<glyph unicode="&#xe673;" glyph-name="pressrelease" d="M1024 530.744c0 200.926-58.792 363.938-131.482 365.226 0.292 0.006 0.578 0.030 0.872 0.030h-82.942c0 0-194.8-146.336-475.23-203.754-8.56-45.292-14.030-99.274-14.030-161.502s5.466-116.208 14.030-161.5c280.428-57.418 475.23-203.756 475.23-203.756h82.942c-0.292 0-0.578 0.024-0.872 0.032 72.696 1.288 131.482 164.298 131.482 365.224zM864.824 220.748c-9.382 0-19.532 9.742-24.746 15.548-12.63 14.064-24.792 35.96-35.188 63.328-23.256 61.232-36.066 143.31-36.066 231.124 0 87.81 12.81 169.89 36.066 231.122 10.394 27.368 22.562 49.266 35.188 63.328 5.214 5.812 15.364 15.552 24.746 15.552s19.536-9.744 24.744-15.552c12.634-14.064 24.796-35.958 35.188-63.328 23.258-61.23 36.068-143.312 36.068-231.122 0-87.804-12.81-169.888-36.068-231.124-10.39-27.368-22.562-49.264-35.188-63.328-5.208-5.806-15.36-15.548-24.744-15.548zM251.812 530.744c0 51.95 3.81 102.43 11.052 149.094-47.372-6.554-88.942-10.324-140.34-10.324-67.058 0-67.058 0-67.058 0l-55.466-94.686v-88.17l55.46-94.686c0 0 0 0 67.060 0 51.398 0 92.968-3.774 140.34-10.324-7.236 46.664-11.048 97.146-11.048 149.096zM368.15 317.828l-127.998 24.51 81.842-321.544c4.236-16.634 20.744-25.038 36.686-18.654l118.556 47.452c15.944 6.376 22.328 23.964 14.196 39.084l-123.282 229.152zM864.824 411.27c-3.618 0-7.528 3.754-9.538 5.992-4.87 5.42-9.556 13.86-13.562 24.408-8.962 23.6-13.9 55.234-13.9 89.078s4.938 65.478 13.9 89.078c4.006 10.548 8.696 18.988 13.562 24.408 2.010 2.24 5.92 5.994 9.538 5.994 3.616 0 7.53-3.756 9.538-5.994 4.87-5.42 9.556-13.858 13.56-24.408 8.964-23.598 13.902-55.234 13.902-89.078 0-33.842-4.938-65.478-13.902-89.078-4.004-10.548-8.696-18.988-13.56-24.408-2.008-2.238-5.92-5.992-9.538-5.992z" />
<glyph unicode="&#xe674;" horiz-adv-x="1023" d="M511.705 959.633c282.353 0 511.337-229.113 511.337-511.634s-228.984-511.634-511.337-511.634c-282.353 0-511.337 229.113-511.337 511.634s228.984 511.634 511.337 511.634z" />
<glyph unicode="&#xe675;" horiz-adv-x="1023" d="M617.16 387.899c0.943-13.222-0.742-25.44-4.969-36.644-4.312-11.212-10.767-21.044-19.534-29.507-8.689-8.372-19.599-15.454-32.665-20.986-13.059-5.617-27.868-9.399-44.336-11.425l-1.665-54.3c-0.103-0.944-0.285-1.979-0.648-2.857-0.357-0.963-1.066-1.781-2.209-2.458s-2.725-1.217-4.735-1.701c-2.011-0.485-4.71-0.848-8.016-1.084-3.813-0.272-6.883-0.234-9.117 0.032-2.228 0.182-4.045 0.564-5.443 1.060s-2.307 1.284-2.803 2.271c-0.503 1.071-0.588 2.258-0.345 3.638l1.853 54.057c-8.034 0.364-15.504 1.196-22.394 2.237-6.895 1.127-13.034 2.393-18.501 3.792-5.388 1.49-10.013 3.034-13.888 4.802-3.868 1.683-6.714 3.355-8.615 4.923-1.822 1.659-3.257 3.857-4.050 6.611-0.878 2.749-1.494 6.624-1.851 11.624-0.259 3.644-0.302 6.623-0.138 9.105 0.17 2.397 0.54 4.384 1.017 6.036 0.564 1.658 1.338 2.736 2.397 3.408 1.061 0.672 2.313 1.017 3.839 1.126 2.12 0.15 5.256-0.819 9.408-2.907 4.153-2.090 9.601-4.427 16.333-6.845 6.732-2.415 14.893-4.559 24.561-6.341 9.584-1.787 21.032-2.249 34.254-1.306 23.478 1.674 41.030 7.612 52.492 17.715 11.546 10.109 16.749 23.173 15.618 39.023-0.7 9.831-3.571 17.805-8.443 24.018-4.957 6.206-11.29 11.377-19.002 15.598s-16.309 7.696-25.959 10.416c-9.564 2.725-19.3 5.438-29.295 8.219-9.91 2.785-19.687 6.092-29.416 9.914-9.644 3.827-18.343 8.744-26.104 14.836s-14.189 13.811-19.359 22.983c-5.168 9.173-8.206 20.713-9.197 34.613-0.792 11.103 0.335 21.576 3.46 31.511 3.131 9.85 8.297 18.652 15.326 26.395 7.115 7.748 16.36 14.287 27.56 19.685 11.286 5.405 24.569 9.078 39.923 11.196l1.338 50.527c0.096 1.030 0.369 1.987 0.726 2.949 0.278 0.872 1.065 1.78 2.124 2.451 1.139 0.763 2.712 1.386 4.644 1.78 2.022 0.315 4.723 0.677 8.198 0.925 3.644 0.26 6.623 0.303 9.105 0.139 2.397-0.171 4.298-0.545 5.539-1.224 1.326-0.672 2.15-1.465 2.56-2.459 0.407-0.908 0.661-2.083 0.757-3.439l-1.967-50.062c5.037-0.152 10.268-0.631 15.777-1.43 5.43-0.89 10.619-1.969 15.389-3.162 4.862-1.273 9.221-2.665 13.174-4.342 3.946-1.593 6.689-3.016 8.142-4.275 1.538-1.253 2.639-2.367 3.317-3.512 0.594-1.151 1.193-2.386 1.641-3.887 0.44-1.417 0.822-3.179 1.216-5.11 0.399-2.016 0.641-4.214 0.816-6.671 0.224-3.136 0.338-5.94 0.248-8.246s-0.298-4.196-0.715-5.502c-0.412-1.393-1.018-2.459-1.817-3.197-0.72-0.647-1.713-1.060-2.899-1.145-1.781-0.126-4.819 0.679-8.876 2.605-4.134 1.835-9.299 3.766-15.583 5.874-6.193 2.028-13.307 3.822-21.431 5.457-8.118 1.551-17.011 2.023-26.844 1.323-11.103-0.792-20.433-2.565-28.165-5.246-7.725-2.765-13.871-6.186-18.509-10.435-4.553-4.244-7.78-9.16-9.676-14.832-1.816-5.582-2.495-11.594-2.030-18.119 0.707-9.917 3.581-17.976 8.552-24.351 5.049-6.286 11.381-11.456 19.088-15.592 7.7-4.051 16.375-7.436 26.104-10.065 9.644-2.635 19.554-5.422 29.64-8.279s20.026-6.069 29.743-9.721c9.802-3.646 18.58-8.472 26.431-14.642 7.846-6.085 14.352-13.714 19.607-22.881 5.168-9.172 8.298-20.791 9.289-34.691z" />
<glyph unicode="&#xe676;" glyph-name="quickfacts" d="M489.225 334.736l-202.8-173.829c0 0-6.817-23.859-1.704-35.788s51.126-57.943 51.126-57.943c0 0 32.38-5.113 40.901 6.817s144.858 139.745 144.858 139.745c0 0-10.225 69.873 0 78.394s32.38 11.929 32.38 11.929l-54.535 47.718-10.225-17.042zM0.296 812.522c0 0 20.148-65.455 72.592-91.095 67.594-1.165 270.377 1.166 284.363 0 15.15-2.331 36.128-38.459 36.128-38.459h-337.972c0 0 23.308-94.399 81.579-99.061s185.302 3.496 195.791-1.165c10.489-4.662 23.308-17.481 30.301-39.624-38.459-6.992-221.429-1.165-221.429-1.165s6.992-58.271 97.895-92.068c96.73-4.662 168.985-1.165 188.798 2.331-5.827 80.414-18.647 182.972 78.083 287.858-10.489 60.602-72.256 73.422-72.256 73.422l-433.871-0.973zM716.554 751.454c-121.166 0-219.428-98.26-219.428-219.428s98.262-219.428 219.428-219.428c121.166 0 219.428 98.261 219.428 219.428s-98.262 219.428-219.428 219.428zM716.554 788.97c141.881 0 256.944-115.061 256.944-256.944s-115.062-256.944-256.944-256.944c-141.881 0-256.944 115.061-256.944 256.944s115.062 256.944 256.944 256.944z" />
<glyph unicode="&#xe677;" glyph-name="quicksolution" horiz-adv-x="1113" d="M222.709 731.97v34.681c0 0-92.415 4.581-120.836 0.51-27.071-8.121-31.148-33.848-31.148-50.091s-2.707-46.021-2.707-46.021h-67.677v-701.138c0 0 283.628 63.646 505.525 10.776 1.239-9.485-1.894-35.657-0.74-42.927 38.738-1.77 87.905-1.094 106.494-1.416-0.707 12.736 2.15 37.545 1.901 41.688 16.243 0 263.92 67.678 485.9 0 16.243 181.376 13.536 684.897 13.536 684.897h-63.646c0 75.615 1.383 104.921-58.199 106.926s-115.698 2.72-115.698 2.72l-0.681-41.969 119.112-2.708 5.415-614.51c0 0-263.592 14.407-393.874-37.899-1.704 13.47-1.35 75.103-1.363 86.627l-86.627 2.707-2.707-94.748c0 0-219.341 78.513-397.943 32.486-10.828 81.212 2.707 625.338 2.707 625.338l103.257 4.071zM425.558 457.164h263.302c0 0-16.204-145.83-93.169-178.236-113.777-47.903-170.134 74.225-170.134 178.236zM476.869 513.875c-51.711 101.775-142.742 223.528-56.711 326.766 60.756 72.908 211.993 87.768 282.205-5.401 58.56-66.393-44.46-262.616-66.163-321.364h67.514c0 0 68.864 163.382 76.965 218.744 21.723 148.445-81.41 231.682-228.196 226.845-122.874-4.051-175.534-68.864-183.636-76.965 0 0-76.965-76.966-36.457-184.988s82.366-190.388 82.366-190.388l66.163-1.35-4.050 8.102z" />
<glyph unicode="&#xe678;" glyph-name="quiz" horiz-adv-x="998" d="M392.427 550.426c27.542-19.059 53.095-32.883 76.344-41.68l-17.489-41.471c-32.255 11.624-64.51 30.055-96.66 55.189-33.302-18.535-70.060-27.856-110.379-27.856-40.738 0-77.6 9.844-110.797 29.428-33.093 19.688-58.645 47.23-76.553 82.836s-26.809 75.715-26.809 120.223c0 44.403 9.006 84.826 27.019 121.27 18.013 36.339 43.565 64.090 76.867 83.15 33.197 18.955 70.374 28.485 111.426 28.485 41.575 0 78.962-9.844 112.368-29.637 33.302-19.688 58.75-47.335 76.239-82.837s26.181-75.506 26.181-120.117c0-36.968-5.55-70.27-16.86-99.802-11.206-29.532-28.17-55.294-50.896-77.181zM261.418 626.56c34.349-9.634 62.625-23.982 84.931-43.041 34.978 31.941 52.466 79.904 52.466 143.89 0 36.444-6.179 68.279-18.536 95.508-12.357 27.123-30.475 48.277-54.247 63.358-23.877 14.975-50.582 22.515-80.323 22.515-44.298 0-81.161-15.184-110.379-45.555-29.323-30.37-43.879-75.715-43.879-136.14 0-58.435 14.451-103.362 43.355-134.675 29.009-31.207 65.976-46.916 110.903-46.916 21.363 0 41.365 3.98 60.216 11.938-18.641 12.148-38.329 20.735-58.959 25.762l14.452 43.356zM548.885 502.254v62.939h62.938v-62.939h-62.938zM0-64l172.794 449.787h64.090l184.103-449.787h-67.861l-52.466 136.245h-188.084l-49.325-136.245h-63.253zM129.752 120.732h152.582l-47.021 124.516c-14.242 37.805-24.924 68.909-31.836 93.309-5.76-28.903-13.824-57.493-24.296-85.977l-49.43-131.847zM477.12-64v62.939h62.938v-62.939h-62.938zM667.519 900.105h330.833v-79.031h-330.833zM667.519 753.16h330.833v-79.030h-330.833zM667.519 602.134h330.833v-79.030h-330.833zM667.519 387.656h330.833v-79.032h-330.833zM667.519 240.711h330.833v-79.030h-330.833zM667.519 89.685h330.833v-79.030h-330.833z" />
<glyph unicode="&#xe679;" d="M405.995 454.667c-52.367 18.112-96.096 51.804-126.709 94.788-30.673 43.069-48.251 95.399-48.251 150.695 0 71.741 29.091 136.705 76.118 183.731s111.99 76.118 183.731 76.118c71.741 0 136.705-29.091 183.731-76.118s76.118-111.99 76.118-183.731c0-42.359-10.351-83.417-29.378-119.968-18.973-36.447-46.701-68.456-81.513-92.829l-27.809 39.809c28.093 19.669 50.576 45.706 66.084 75.496 15.449 29.678 23.854 63.043 23.854 97.491 0 58.282-23.631 111.055-61.832 149.255s-90.974 61.832-149.255 61.832c-58.282 0-111.055-23.631-149.255-61.832s-61.832-90.974-61.832-149.255c0-45.061 14.247-87.597 39.107-122.504 24.918-34.989 60.433-62.386 102.899-77.074l-15.809-45.905z" />
<glyph unicode="&#xe67a;" d="M279.547 541.464l-202.8-173.83c0 0-6.817-23.859-1.704-35.788s51.126-57.943 51.126-57.943c0 0 32.38-5.113 40.901 6.817s144.857 139.745 144.857 139.745c0 0-10.225 69.873 0 78.394s32.38 11.929 32.38 11.929l-54.535 47.718-10.225-17.042z" />
<glyph unicode="&#xe67b;" d="M326.93 689.542c15.135 16.026 55.688 55.659 111.846 72.732 56.917 17.302 129.045 11.653 205.474-63.878l6.481-6.405-4.243-7.976c-8.14-15.303-20.087-29.406-34.815-41.573-26.588-21.964-62.52-37.754-101.5-42.855-39.017-5.106-81.142 0.447-120.086 21.162-22.768 12.111-44.417 29.379-63.68 52.697l-6.848 8.289 7.371 7.806zM445.823 739.037c-42.848-13.026-76.016-41.181-93.478-58.312 15.225-16.594 31.851-29.239 49.17-38.452 34.215-18.2 71.229-23.077 105.515-18.591 34.325 4.492 65.87 18.316 89.119 37.522 9.695 8.008 17.895 16.928 24.181 26.455-65.792 61.362-126.578 65.948-174.507 51.378z" />
<glyph unicode="&#xe67c;" d="M483.197 756.193c32.468 0 58.798-26.33 58.798-58.793 0-32.467-26.33-58.797-58.798-58.797-32.463 0-58.793 26.33-58.793 58.797 0 32.463 26.33 58.793 58.793 58.793z" />
<glyph unicode="&#xe67d;" d="M531.77 703.363c0-12.236-9.156-22.155-20.45-22.155s-20.45 9.919-20.45 22.155c0 12.236 9.156 22.155 20.45 22.155s20.45-9.919 20.45-22.155z" />
<glyph unicode="&#xe67e;" d="M423.755 530.014h395.422l61.261-354.777-531.681-0.271 54.064 355.046h20.933zM778.184 481.252h-333.494l-39.239-257.684 417.191 0.212-44.459 257.472z" />
<glyph unicode="&#xe67f;" d="M348.798 176.721h531.383v-201.096h-531.383z" />
<glyph unicode="&#xe680;" d="M601.259 300.461v47.038c-28.4 8.114-42.57 24.871-42.57 50.096 0 12.759 3.881 23.225 11.701 31.398 7.82 8.114 18.109 12.759 30.869 13.935v11.172h16.345v-11.172c23.872-2.763 37.807-15.816 41.864-39.1l-28.458-3.645c-1.705 8.878-6.174 14.817-13.406 17.933v-43.922c30.986-7.82 46.509-24.048 46.509-48.743 0-14.229-4.175-25.871-12.583-34.867-8.408-9.055-19.697-14.582-33.926-16.64v-21.050h-16.345v20.52c-26.871 3.234-42.57 19.462-47.038 48.743l29.281 3.293c2.411-12.171 8.29-20.52 17.757-24.989zM601.259 418.468c-9.643-3.234-14.523-9.702-14.523-19.462 0-8.761 4.88-15.229 14.523-19.462v38.924zM617.605 298.933c12.642 2.293 18.933 9.76 18.933 22.402 0 10.525-6.291 17.639-18.933 21.343v-43.745z" />
<glyph unicode="&#xe681;" glyph-name="RCM" d="M1.202 560.765h166.036c106.757 274.931 421.087 312.724 633.1 176.252 40.509-31.587 23.97-150.364-60.92-97.118-60.943 38.209-370.061 201.574-500.511-167.861-186.308-4.311-238.906-3.594-238.906-3.594l1.202 92.321zM525.708 208.437v42.131c-21.105 2.638-38.213 7.355-51.404 14.151s-24.623 17.827-34.216 32.937c-9.593 15.19-15.19 33.657-16.709 55.482l42.371 7.994c3.278-22.624 9.034-39.253 17.348-49.885 11.832-15.030 26.062-23.344 42.611-25.023v134.148c-17.348 3.278-35.016 9.993-53.163 20.146-13.431 7.515-23.744 17.908-31.018 31.179s-10.873 28.301-10.873 45.169c0 29.979 10.633 54.282 31.818 72.83 14.23 12.551 35.336 20.146 63.236 22.944v20.146h24.863v-20.146c24.463-2.319 43.97-9.514 58.28-21.505 18.468-15.27 29.5-36.295 33.257-62.997l-43.57-6.556c-2.478 16.549-7.675 29.26-15.589 38.054-7.835 8.794-18.627 14.63-32.378 17.428v-121.516c21.186-5.357 35.256-9.514 42.131-12.472 13.111-5.756 23.824-12.791 32.058-21.025 8.314-8.314 14.71-18.147 19.106-29.5 4.477-11.432 6.715-23.744 6.715-37.014 0-29.26-9.353-53.564-27.901-73.070-18.547-19.587-42.611-29.979-72.11-31.419v-42.611h-24.863zM525.708 577.543c-16.389-2.478-29.34-9.034-38.773-19.667s-14.151-23.184-14.151-37.734c0-14.31 3.998-26.382 12.072-36.055s21.665-17.428 40.852-23.184v116.64zM550.571 286.224c16.389 1.998 29.899 9.113 40.612 21.265s16.069 27.262 16.069 45.249c0 15.27-3.837 27.581-11.352 36.855-7.595 9.274-22.704 17.588-45.329 24.943v-128.312zM1044.524 300.148l-166.018 2.411c-110.739-273.351-425.585-306.576-635.593-167.038-40.046 32.172-21.784 150.696 62.324 96.223 60.381-39.091 367.094-206.929 502.897 160.575 186.351 1.605 238.933 0.124 238.933 0.124l-2.543-92.294z" />
<glyph unicode="&#xe682;" glyph-name="registeryourresume" horiz-adv-x="1031" d="M814.090 180.336l5.188 93.388h21.963l-3.459-91.659c50.726-0.577 122.729-1.155 173.459-1.729 11.214 22.428-29.245 88.514-131.033 109.216-31.917 13.802-15.527 56.932-15.527 56.932s82.81 84.535 31.054 168.209c-35.367 48.306-90.574 34.505-115.59 12.076-65.558-64.695-12.328-174.665 17.252-186.323 13.19-19.421 0-37.955-11.214-49.169-51.757-6.038-125.079-52.615-130.254-110.41 49.169-4.744 158.159-0.532 158.159-0.532zM778.027 581.564h82.931v184.174l-169.037 194.014h-691.672v-1023.503h857.587v185.309h-84.035v-103.429h-693.827l-2.155 861.897h577.47l122.823-152.986zM172.727 735.581h477.13v-52.776h-477.13zM172.727 610.643h477.13v-52.775h-477.13zM168.419 481.398h477.13v-52.775h-477.13zM172.727 353.23h477.13v-52.775h-477.13zM172.727 222.908h477.13v-52.776h-477.13z" />
<glyph unicode="&#xe683;" glyph-name="requestfor" d="M122.666 754.893h376.274c0 0 28.041-25.491 28.041-40.786s-2.55-219.875-2.55-219.875c0 0 0-20.393-30.589-25.491s-91.72 2.55-96.818-5.098c-5.098-7.647-6.147-274.659-6.147-274.659s-191.735 0-242.717 0c-50.982 0-147.85 66.278-147.85 127.457s0 326.291 0 351.78c0 25.491 35.688 86.671 122.358 86.671zM536.426 740.376l451.39 0.321c0 0 48.316-8.9 50.859-54.674s-8.9-64.846-49.588-81.375c-40.688-1.272-453.304-1.259-453.304-1.259l0.642 136.986zM536.426 597.971l90.806 0.321c0 0 48.316-8.901 50.859-54.674s-8.9-64.845-49.588-81.375c-40.688-1.272-92.72-1.259-92.72-1.259l0.642 136.987zM401.93 458.96l231.903 0.321c0 0 48.316-8.901 50.859-54.674s-8.9-64.846-49.588-81.375c-40.688-1.272-233.817-1.259-233.817-1.259l0.642 136.987zM400.658 322.909l231.903 0.321c0 0 48.316-8.901 50.859-54.674s-8.9-64.846-49.588-81.375c-40.688-1.272-233.817-1.259-233.817-1.259l0.642 136.987z" />
<glyph unicode="&#xe684;" d="M422.013 855.704c222.558 0 403.050-152.535 403.050-340.63s-180.491-340.63-403.050-340.63c-37.145 0-73.124 4.253-107.281 12.203-32.602 7.591-183.047-86.662-220.701-103.105 5.148 45.976 73.137 166.19 49.396 185.392-76.682 62.009-124.463 149.374-124.463 246.14 0 188.095 180.491 340.63 403.049 340.63zM400.612 331.383l5.35 53.638h22.649l-3.567-51.854c52.31-0.595 126.561-1.191 178.876-1.783 11.564 23.128-30.158 91.278-135.124 112.627-32.913 14.233-16.012 58.71-16.012 58.71s85.396 87.175 32.024 173.461c-36.472 49.815-93.402 35.582-119.199 12.453-67.605-66.715-12.713-180.119 17.791-192.141 13.602-20.028 0-39.14-11.564-50.704-53.373-6.227-128.984-49.815-134.321-109.414 50.704-7.116 163.098-4.992 163.098-4.992z" />
<glyph unicode="&#xe685;" d="M871.431 422.39c-122.111 0-221.141-78.573-221.141-175.464s99.030-175.464 221.141-175.464c20.381 0 40.121 2.191 58.862 6.286 17.888 3.911 100.433-44.64 121.093-53.111-2.824 23.683-40.128 85.607-27.102 95.499 42.073 31.942 68.289 76.945 68.289 126.79 0 96.891-99.030 175.464-221.141 175.464z" />
<glyph unicode="&#xe686;" d="M860.407 152.304l2.756 49.607h11.667l-1.838-48.689c26.946-0.307 65.194-0.614 92.142-0.919 5.957 11.914-15.535 47.019-69.605 58.016-16.954 7.331-8.248 30.242-8.248 30.242s43.988 44.905 16.496 89.353c-18.787 25.66-48.113 18.329-61.401 6.415-34.825-34.367-6.548-92.783 9.164-98.975 7.007-10.317 0-20.161-5.957-26.118-27.493-3.208-66.441-25.66-69.191-56.361 26.118-3.666 84.014-2.571 84.014-2.571z" />
<glyph unicode="&#xe687;" glyph-name="savemoney" d="M37.732 857.581h173.072l4.978-1.2c0.147-0.072 50.539-23.954 18.243-69.677l723.17-1.049c0.524 0.007 71.962 1.155 59.61-68.838-9.928-56.256-64.651-291.71-65.858-296.9-1.070-6.726-8.637-44.307-44.134-43.482-28.258 0.657-606.425 2.551-624.895 2.611l18.128-45.836 586.048 3.196c0.208 0.008 72.851 3.521 53.805-49.808-6.812-19.072-12.551-33.232-18.073-43.668-6.242-11.795-12.466-19.171-19.669-23.448-12.929-7.677-45.44-4.954-49.746-4.554l-588.209-0.882c-0.128 0.030-44.957 10.293-52.752 38.876-5.524 20.253-130.768 445.684-135.971 463.362l-0.004-0.002c-0.036 0.102-11.691 31.361 9.521 49.72h-43.765l-3.689 0.667c-0.077 0.027-27.242 9.072-35.704 34.461-1.763 5.291-2.177 10.598-1.588 15.725 1.080 9.385 5.509 18.226 10.998 25.107 5.636 7.066 12.827 12.423 19.015 14.486 2.55 0.85 5.065 1.247 7.467 1.132zM207.97 834.826l-170.832 0.027c-2.204-0.84-5.226-3.405-8.111-7.023-3.139-3.935-5.646-8.758-6.197-13.552-0.24-2.092-0.11-4.144 0.52-6.035 3.911-11.733 15.481-17.626 19.862-19.484h53.965l1.244-0.089c0.21-0.023 73.918-8.028 7.196-36.385-16.619-7.063-8.739-28.298-8.719-28.358l0.178-0.622c0.372-1.266 129.888-441.124 136.242-464.426 3.733-13.689 29.328-20.982 34.951-22.429l585.976 1.103c0.083-0.008 28.886-2.95 36.357 1.486 3.452 2.050 6.97 6.596 11.137 14.469 4.885 9.231 10.224 22.49 16.74 40.735 7.609 21.306-31.383 19.502-31.495 19.498h-0.4l-601.999-3.281-2.848 7.198c-0.063 0.16-17.881 45.481-22.824 57.839-7.382 18.456 19.519 25.843 19.595 25.863l2.933 0.356c1.713-0.005 597.216-1.948 625.816-2.612 18.348-0.427 21.34 24.618 21.348 24.689l0.178 1.155c0.16 0.688 55.664 239.365 65.619 295.78 7.6 43.070-36.915 42.261-37.041 42.261h-0.089l-735.56 1.772c-0.054 0.020-19.478 7.077-9.774 29.719l1.511 2.533c16.732 21.348 0.641 34.035-5.483 37.813zM281.443 380.25v3.299c-1.371 1.802-2.496 2.98-1.462 0.393l1.462-3.693zM121.505 753.622h840.789c5.791 0.341 32.883 0.057 27.204-35.917-3.941-24.961-59.752-272.739-63.681-290.17-0.547-6.718-5.326-26.039-42.389-24.495-31.366 1.306-639.306 0.052-663.802 0.002-5.107-0.547-24.195-0.856-28.066 24.303-2.491 16.193-82.621 278.086-87.34 293.502-0.654 1.719-8.885 24.616 13.727 32.154l3.556 0.622zM962.511 730.866h-837.597c0.087-0.711 0.506-1.767 0.507-1.771l0.267-0.844c0.246-0.802 85.598-279.538 88.366-297.528 0.859-5.585 2.656-5.196 2.66-5.195l2.089 0.178c1.817 0.004 633.509 1.334 665.517 0 19.24-0.801 18.877 2.563 18.877 2.572l0.267 3.245c0.171 0.76 59.724 264.871 63.636 289.65 1.649 10.447-3.286 9.784-3.299 9.783l-1.289-0.089zM265.986 736.025l50.647-314.544-22.4-3.555-50.647 314.544zM416.729 736.024l13.328-315.877-22.668-0.888-13.328 315.876zM554.050 735.58v-314.544h-22.753v314.544zM707.28 733.759l-14.659-315.877-22.668 0.978 14.662 315.875zM860.51 735.802l-31.988-322.541-22.578 2.222 31.988 322.541zM136.166 670.943l827.677-1.333v-22.667l-827.677 1.333zM164.155 577.689h774.363v-22.753h-774.363zM190.812 491.058h733.048v-22.756h-733.048zM225.465 205.2c19.303 0 36.811-7.861 49.51-20.565 12.671-12.679 20.511-30.178 20.511-49.487s-7.84-36.81-20.511-49.487c-12.698-12.705-30.207-20.565-49.51-20.565s-36.811 7.861-49.51 20.565c-12.672 12.677-20.511 30.177-20.511 49.487s7.84 36.808 20.511 49.487c12.698 12.705 30.206 20.565 49.51 20.565zM258.886 168.635c-8.527 8.531-20.342 13.81-33.421 13.81s-24.894-5.279-33.421-13.81c-8.552-8.558-13.845-20.398-13.845-33.487s5.292-24.93 13.845-33.487c8.527-8.531 20.343-13.81 33.421-13.81s24.894 5.279 33.421 13.81c8.553 8.557 13.845 20.398 13.845 33.487s-5.293 24.929-13.845 33.487zM906.531 207.867c19.304 0 36.811-7.861 49.51-20.565 12.671-12.679 20.511-30.178 20.511-49.487s-7.84-36.81-20.511-49.487c-12.698-12.705-30.206-20.565-49.51-20.565s-36.811 7.861-49.51 20.565c-12.672 12.677-20.511 30.177-20.511 49.487s7.84 36.808 20.511 49.487c12.698 12.705 30.207 20.565 49.51 20.565zM939.952 171.302c-8.527 8.531-20.343 13.81-33.421 13.81s-24.894-5.279-33.421-13.81c-8.552-8.558-13.845-20.398-13.845-33.487s5.292-24.93 13.845-33.487c8.527-8.531 20.342-13.81 33.421-13.81s24.894 5.279 33.421 13.81c8.553 8.557 13.845 20.398 13.845 33.487s-5.293 24.929-13.845 33.487z" />
<glyph unicode="&#xe688;" glyph-name="selectbylocation" d="M512 960c-176.736 0-320-143.264-320-320 0-320 320-704 320-704s320 384 320 704c0 176.736-143.264 320-320 320zM512 448c-106.048 0-192 85.952-192 192s85.952 192 192 192 192-85.952 192-192-85.952-192-192-192z" />
<glyph unicode="&#xe689;" glyph-name="softwareused" horiz-adv-x="868" d="M0 407.429l576.462 2.443v-254.034c0 0-82.697-222.281-282.993-219.838s-293.47 224.723-293.47 224.723v246.707zM2.442 454.795h249.149v249.149l-136.718-0.058c0 0-69.028 8.934-110.541-71.649-2.442-70.815-1.891-177.442-1.891-177.442zM564.585 459.681h-254.034v249.149l139.398-0.058c0 0 70.381 8.934 112.707-71.649 2.49-70.815 1.929-177.442 1.929-177.442zM255.163 713.831c14.032 0 28.065 0 42.097 0 1.626 38.64-2.847 76.669 4.881 115.92 3.417 17.353 16.689 84.771 79.238 93.58s156.996-89.221 171.647-102.651c14.651-13.43 151.93-156.788 224.655-120.874s94.013 80.583 89.129 235.643c-15.183 0.092-43.954-1.221-43.954-1.221s24.419-224.655-91.571-195.352c-115.99 29.303-214.887 251.516-361.402 217.33s-114.721-242.374-114.721-242.374z" />
<glyph unicode="&#xe68a;" glyph-name="specialtybillingguidline" d="M392.739 750.419h591.208v-73.143h-591.208zM392.739 437.713h591.208v-73.143h-591.208zM392.739 129.894h591.208v-73.143h-591.208zM52.572 822.196l97.009-100.889 174.040 165.551 50.286-52.858-226.613-215.56-147.293 153.185zM52.572 482.626l97.009-100.889 174.040 165.551 50.286-52.858-226.613-215.559-147.293 153.184zM52.572 194.349l97.009-100.888 174.040 165.551 50.286-52.858-226.613-215.559-147.293 153.184z" />
</font>
</defs>
</svg>
