<?xml version="1.0" encoding="UTF-8"?>
<!DOCTYPE svg PUBLIC "-//W3C//DTD SVG 1.1//EN" "http://www.w3.org/Graphics/SVG/1.1/DTD/svg11.dtd">
<!-- Creator: CorelDRAW -->
<svg xmlns="http://www.w3.org/2000/svg" xml:space="preserve" width="6.84026in" height="5.74044in" style="shape-rendering:geometricPrecision; text-rendering:geometricPrecision; image-rendering:optimizeQuality; fill-rule:evenodd; clip-rule:evenodd"
viewBox="0 0 6.5728 5.51599"
 xmlns:xlink="http://www.w3.org/1999/xlink">
 <defs>
  <style type="text/css">
   <![CDATA[
    .fil1 {fill:black}
    .fil0 {fill:black;fill-rule:nonzero}
   ]]>
  </style>
 </defs>
 <g id="Layer_x0020_1">
  <metadata id="CorelCorpID_0Corel-Layer"/>
  <g id="_121492072">
   <path id="_121493368" class="fil0" d="M6.13687 0.0672327c0.000979815,0.000374524 0.343442,0.132082 0.397377,0.482716 0.0212419,0.138131 0.0426579,1.73196 0.037895,3.03865 -0.00333667,0.917928 -0.024571,1.71133 -0.0766904,1.81555 -0.0831443,0.166277 -0.898301,0.128526 -1.91092,0.0081336 -1.64753,-0.195891 -3.92675,-0.54048 -4.01293,-0.570911 -0.0877597,-0.0309909 -0.205443,-0.0811809 -0.310715,-0.160111 -0.124887,-0.0936688 -0.227332,-0.223008 -0.248699,-0.401047 -0.0268863,-0.223924 -0.000941984,-3.70558 -0.000866323,-3.71559l0.0189683 -0.0896739c0.000605291,-0.00135434 0.213392,-0.474949 0.545651,-0.474949 0.0297198,0 5.46789,0.052422 5.48331,0.0525695l0.0776059 0.0146632zm-0.0388975 0.548246c-0.00998731,-0.0649553 -0.0596779,-0.104477 -0.0918302,-0.123665 -0.524659,-0.00518281 -5.10029,-0.0503678 -5.43019,-0.0503678 -0.0342141,0 -0.094781,0.113572 -0.12525,0.175463 -0.00303781,0.425073 -0.0236215,3.41903 -0.000503148,3.61158 0.00448672,0.0374146 0.0356744,0.0718481 0.0745303,0.100985 0.0584825,0.0438496 0.134753,0.075582 0.193462,0.0963132 0.0759376,0.0268106 2.29211,0.355151 3.91807,0.548488 0.840477,0.0999222 1.4452,0.274938 1.46603,0.233279 0.0180074,-0.0360186 0.0269771,-0.758169 0.0301132,-1.61896 0.00469479,-1.28655 -0.0147842,-2.84542 -0.0344335,-2.97311z"/>
   <path id="_121490872" class="fil1" d="M1.61021 3.49589c0,0 0.310352,-0.353286 0.620556,-0.0689502 0.224071,0.146515 3.92159,1.74106 3.92159,1.74106l-5.83496 -0.775677c-0.0721545,-0.195778 0.672354,5.2963e-005 1.29281,-0.896433z"/>
   <path id="_121490800" class="fil0" d="M1.59656 3.48368c0.000919286,-0.00103278 0.321429,-0.365849 0.644824,-0.0717875 0.22723,0.147487 4.10781,1.6596 3.91824,1.73922l-0.00962413 0.160168 -5.83496 -0.900783 -0.0110655 -0.00147161 -0.00381712 -0.0103845c-0.0216165,-0.0586905 0.00997974,-0.0890156 0.0801822,-0.114888 0.0315886,-0.0116367 0.0715492,-0.0223996 0.11863,-0.0350691 0.247942,-0.0667296 0.697958,-0.187852 1.09616,-0.763215l0.00143757 -0.00179318zm0.621853 -0.0432367c-0.287755,-0.263748 -0.576343,0.0474586 -0.593707,0.0667107 -0.40578,0.585789 -0.863826,0.709091 -1.11625,0.777031 -0.0462064,0.0124312 -0.0854369,0.0230048 -0.115482,0.0340703 -0.042359,0.0156014 -0.0646867,0.031827 -0.0609831,0.0575216l5.6915 0.756603c-0.640099,-0.276542 -3.60157,-1.55848 -3.80279,-1.69006l-0.00229254 -0.00188019z"/>
   <polygon id="_121492288" class="fil1" points="1.29993,0.996419 5.28184,0.996419 5.28184,1.3067 1.29993,1.3067 "/>
   <path id="_121833048" class="fil0" d="M1.29993 0.978026l3.98191 0 0.0183933 0 0 0.0183933 0 0.31028 0 0.0183971 -0.0183933 0 -3.98191 0 -0.0183971 0 0 -0.0183971 0 -0.31028 0 -0.0183933 0.0183971 0zm3.96351 0.0367904l-3.94512 0 0 0.273489 3.94512 0 0 -0.273489z"/>
   <polygon id="_121834872" class="fil1" points="1.28269,1.54803 5.2646,1.54803 5.2646,1.85831 1.28269,1.85831 "/>
   <path id="_121833336" class="fil0" d="M1.28269 1.52963l3.98191 0 0.0183971 0 0 0.0183971 0 0.31028 0 0.0183933 -0.0183971 0 -3.98191 0 -0.0183933 0 0 -0.0183933 0 -0.31028 0 -0.0183971 0.0183933 0zm3.96352 0.0367904l-3.94512 0 0 0.273489 3.94512 0 0 -0.273489z"/>
   <polygon id="_121833240" class="fil1" points="1.31717,2.13411 5.29908,2.13411 5.29908,2.44439 1.31717,2.44439 "/>
   <path id="_121832688" class="fil0" d="M1.31717 2.11572l3.98192 0 0.0183933 0 0 0.0183933 0 0.31028 0 0.0183933 -0.0183933 0 -3.98192 0 -0.0183933 0 0 -0.0183933 0 -0.31028 0 -0.0183933 0.0183933 0zm3.96352 0.0367904l-3.94512 0 0 0.273486 3.94512 0 0 -0.273486z"/>
   <polygon id="_121835112" class="fil1" points="1.31717,2.73743 5.29908,2.73743 5.29908,3.04771 1.31717,3.04771 "/>
   <path id="_121493392" class="fil0" d="M1.31717 2.71904l3.98192 0 0.0183933 0 0 0.0183933 0 0.31028 0 0.0183933 -0.0183933 0 -3.98192 0 -0.0183933 0 0 -0.0183933 0 -0.31028 0 -0.0183933 0.0183933 0zm3.96352 0.0367904l-3.94512 0 0 0.273486 3.94512 0 0 -0.273486z"/>
  </g>
 </g>
</svg>
